<svg width="20" height="10" viewBox="0 0 20 10" fill="none" xmlns="http://www.w3.org/2000/svg">
<path fill-rule="evenodd" clip-rule="evenodd" d="M5.22619 1.36358C5.51909 1.07069 5.51909 0.595815 5.22619 0.302922C4.9333 0.0100286 4.45843 0.0100286 4.16553 0.302922L0.302678 4.16578C0.224154 4.2443 0.166683 4.3359 0.130263 4.43357C0.100479 4.51325 0.0838555 4.59934 0.0830393 4.68921C0.0830181 4.69153 0.0830076 4.69385 0.0830078 4.69617C0.0830078 4.8092 0.108011 4.91639 0.152788 5.01251C0.177903 5.06651 0.209796 5.11814 0.248468 5.16612C0.267111 5.18928 0.287101 5.2113 0.30832 5.23208L4.16553 9.08929C4.45843 9.38219 4.9333 9.38219 5.22619 9.08929C5.51909 8.7964 5.51909 8.32153 5.22619 8.02863L2.64373 5.44617H19.3747C19.7889 5.44617 20.1247 5.11038 20.1247 4.69617C20.1247 4.28195 19.7889 3.94617 19.3747 3.94617H2.64361L5.22619 1.36358Z" fill="url(#paint0_linear)"/>
<defs>
<linearGradient id="paint0_linear" x1="-0.127957" y1="5.00838" x2="20.1247" y2="5.00838" gradientUnits="userSpaceOnUse">
<stop stop-color="white"/>
<stop offset="1" stop-color="white" stop-opacity="0"/>
<stop offset="1" stop-color="white" stop-opacity="0"/>
</linearGradient>
</defs>
</svg>
