<svg width="20" height="10" viewBox="0 0 20 10" fill="none" xmlns="http://www.w3.org/2000/svg">
<path fill-rule="evenodd" clip-rule="evenodd" d="M14.7738 1.36358C14.4809 1.07069 14.4809 0.595815 14.7738 0.302922C15.0667 0.0100286 15.5416 0.0100287 15.8345 0.302922L19.6973 4.16578C19.7758 4.24429 19.8333 4.33588 19.8697 4.43353C19.9004 4.51585 19.9162 4.60248 19.917 4.68921C19.917 4.69152 19.917 4.69383 19.917 4.69614C19.917 4.69615 19.917 4.69616 19.917 4.69617C19.917 4.8092 19.892 4.91639 19.8472 5.01251C19.8221 5.06651 19.7902 5.11814 19.7515 5.16612C19.7329 5.18928 19.7129 5.2113 19.6917 5.23208L15.8345 9.08929C15.5416 9.38219 15.0667 9.38219 14.7738 9.08929C14.4809 8.7964 14.4809 8.32153 14.7738 8.02863L17.3563 5.44617H0.625284C0.211071 5.44617 -0.124716 5.11038 -0.124716 4.69617C-0.124716 4.28195 0.211071 3.94617 0.625284 3.94617H17.3564L14.7738 1.36358Z" fill="url(#paint0_linear)"/>
<defs>
<linearGradient id="paint0_linear" x1="20.128" y1="5.00838" x2="-0.124674" y2="5.00838" gradientUnits="userSpaceOnUse">
<stop stop-color="white"/>
<stop offset="1" stop-color="white" stop-opacity="0"/>
<stop offset="1" stop-color="white" stop-opacity="0"/>
</linearGradient>
</defs>
</svg>
