<svg width="20" height="20" viewBox="0 0 20 20" fill="none" xmlns="http://www.w3.org/2000/svg">
<path d="M2.11662 12.0825C2.31224 12.0825 2.47656 12.0582 2.60959 12.0095C2.74261 11.9608 2.84824 11.8958 2.92649 11.8146C3.00735 11.7334 3.06473 11.6387 3.09864 11.5304C3.13515 11.4222 3.15341 11.3072 3.15341 11.1854C3.15341 11.0582 3.13385 10.9445 3.09473 10.8444C3.0556 10.7415 2.99431 10.6549 2.91084 10.5846C2.82738 10.5115 2.71913 10.456 2.58611 10.4181C2.4557 10.3802 2.2979 10.3613 2.11271 10.3613H1.05244V12.0825H2.11662ZM1.05244 7.90934V9.60622H1.8897C2.24964 9.60622 2.5209 9.53857 2.70348 9.40325C2.88867 9.26793 2.98127 9.05277 2.98127 8.75778C2.98127 8.45196 2.8978 8.2341 2.73087 8.10419C2.56394 7.97429 2.30311 7.90934 1.94839 7.90934H1.05244ZM1.94839 7.06495C2.31876 7.06495 2.63567 7.10149 2.89911 7.17456C3.16254 7.24763 3.37772 7.35183 3.54465 7.48714C3.71419 7.62246 3.83809 7.7862 3.91634 7.97835C3.99458 8.1705 4.03371 8.38701 4.03371 8.62787C4.03371 8.7659 4.01415 8.89851 3.97502 9.02571C3.9359 9.1502 3.8746 9.26793 3.79114 9.37889C3.71028 9.48714 3.60595 9.58593 3.47814 9.67524C3.35295 9.76455 3.20297 9.84032 3.02822 9.90257C3.80548 10.0839 4.19412 10.5196 4.19412 11.2097C4.19412 11.4587 4.14847 11.6888 4.05718 11.8999C3.96589 12.111 3.83287 12.2936 3.65812 12.4479C3.48336 12.5995 3.26818 12.7185 3.01257 12.8051C2.75695 12.8917 2.46483 12.935 2.13618 12.935H0V7.06495H1.94839Z" fill="#EBEFF5"/>
<path d="M8.46416 12.0338V12.935H5.15034V7.06495H6.20278V12.0338H8.46416Z" fill="#EBEFF5"/>
<path d="M14.4121 10C14.4121 10.4303 14.343 10.8295 14.2048 11.1976C14.0692 11.5629 13.8761 11.8796 13.6257 12.1475C13.3753 12.4154 13.0741 12.6252 12.722 12.7767C12.3699 12.9256 11.9786 13 11.5482 13C11.1205 13 10.7306 12.9256 10.3784 12.7767C10.0263 12.6252 9.72375 12.4154 9.47075 12.1475C9.22036 11.8796 9.02604 11.5629 8.8878 11.1976C8.74956 10.8295 8.68044 10.4303 8.68044 10C8.68044 9.56969 8.74956 9.17185 8.8878 8.8065C9.02604 8.43843 9.22036 8.12043 9.47075 7.8525C9.72375 7.58457 10.0263 7.37618 10.3784 7.22733C10.7306 7.07578 11.1205 7 11.5482 7C11.8352 7 12.1051 7.03518 12.3581 7.10555C12.6111 7.17321 12.8433 7.27064 13.0545 7.39783C13.2658 7.52233 13.4549 7.67524 13.6218 7.85656C13.7914 8.03518 13.9348 8.23545 14.0522 8.45737C14.1696 8.6793 14.2583 8.92016 14.3182 9.17997C14.3808 9.43978 14.4121 9.71313 14.4121 10ZM13.3362 10C13.3362 9.67794 13.2945 9.38972 13.211 9.13532C13.1276 8.87821 13.0089 8.66035 12.855 8.48173C12.7011 8.30311 12.5133 8.16644 12.2916 8.07172C12.0725 7.977 11.8247 7.92963 11.5482 7.92963C11.2718 7.92963 11.0227 7.977 10.801 8.07172C10.5819 8.16644 10.3941 8.30311 10.2376 8.48173C10.0837 8.66035 9.96502 8.87821 9.88156 9.13532C9.79809 9.38972 9.75636 9.67794 9.75636 10C9.75636 10.3221 9.79809 10.6116 9.88156 10.8687C9.96502 11.1231 10.0837 11.3396 10.2376 11.5183C10.3941 11.6942 10.5819 11.8295 10.801 11.9242C11.0227 12.0189 11.2718 12.0663 11.5482 12.0663C11.8247 12.0663 12.0725 12.0189 12.2916 11.9242C12.5133 11.8295 12.7011 11.6942 12.855 11.5183C13.0089 11.3396 13.1276 11.1231 13.211 10.8687C13.2945 10.6116 13.3362 10.3221 13.3362 10Z" fill="#EBEFF5"/>
<path d="M20 9.99188V12.3667C19.7131 12.5859 19.4066 12.747 19.0806 12.8498C18.7572 12.9499 18.4103 13 18.0399 13C17.5782 13 17.1596 12.9256 16.784 12.7767C16.411 12.6279 16.0915 12.4208 15.8254 12.1556C15.562 11.8904 15.3586 11.5737 15.2151 11.2057C15.0716 10.8376 14.9999 10.4357 14.9999 10C14.9999 9.55886 15.069 9.15426 15.2073 8.7862C15.3455 8.41813 15.5411 8.10149 15.7941 7.83627C16.0498 7.57104 16.3588 7.36536 16.7214 7.21921C17.0839 7.07307 17.4908 7 17.9421 7C18.1716 7 18.3855 7.01894 18.5837 7.05683C18.7845 7.09472 18.9697 7.1475 19.1393 7.21516C19.3114 7.28011 19.4679 7.35995 19.6088 7.45467C19.7496 7.54939 19.8787 7.65359 19.9961 7.76725L19.6948 8.26252C19.6479 8.341 19.5866 8.38972 19.5109 8.40866C19.4353 8.4249 19.3531 8.4046 19.2645 8.34777C19.1784 8.29635 19.0923 8.24493 19.0062 8.1935C18.9202 8.14208 18.8237 8.09743 18.7167 8.05954C18.6124 8.02165 18.4937 7.99053 18.3607 7.96617C18.2303 7.94181 18.079 7.92963 17.9069 7.92963C17.6278 7.92963 17.3748 7.97835 17.1478 8.07578C16.9235 8.17321 16.7318 8.31258 16.5727 8.49391C16.4136 8.67524 16.291 8.8931 16.2049 9.1475C16.1189 9.40189 16.0758 9.68606 16.0758 10C16.0758 10.3356 16.1215 10.636 16.2128 10.9012C16.3067 11.1637 16.4371 11.387 16.604 11.571C16.7736 11.7524 16.977 11.8917 17.2144 11.9892C17.4517 12.0839 17.7164 12.1313 18.0086 12.1313C18.2172 12.1313 18.4037 12.1083 18.5681 12.0622C18.7324 12.0162 18.8928 11.954 19.0493 11.8755V10.8119H18.3372C18.2694 10.8119 18.2159 10.793 18.1768 10.7551C18.1403 10.7145 18.122 10.6658 18.122 10.6089V9.99188H20Z" fill="#EBEFF5"/>
</svg>
