<svg width="13" height="13" viewBox="0 0 13 13" fill="none" xmlns="http://www.w3.org/2000/svg">
<path d="M11.3221 12.7142L6.48814 7.88016L1.65814 12.7112C1.47413 12.8896 1.22735 12.9886 0.97101 12.9868C0.714676 12.985 0.469326 12.8825 0.287869 12.7014C0.106411 12.5203 0.00338418 12.2752 0.00100371 12.0189C-0.00137676 11.7626 0.0970802 11.5156 0.275144 11.3312L5.10914 6.49816L0.275144 1.66616C0.0968231 1.48201 -0.00198325 1.23516 3.01781e-05 0.978835C0.0020436 0.722507 0.104716 0.477238 0.285907 0.295916C0.467098 0.114594 0.712292 0.0117441 0.968619 0.00954513C1.22495 0.00734616 1.47187 0.105974 1.65614 0.284161L6.48814 5.11816L11.3221 0.286161C11.5051 0.103029 11.7534 9.38323e-05 12.0123 6.4119e-08C12.2712 -9.37041e-05 12.5195 0.102662 12.7026 0.285661C12.8858 0.46866 12.9887 0.716913 12.9888 0.975807C12.9889 1.2347 12.8861 1.48303 12.7031 1.66616L7.87014 6.49816L12.7031 11.3302C12.8815 11.5143 12.9803 11.7612 12.9783 12.0175C12.9762 12.2738 12.8736 12.5191 12.6924 12.7004C12.5112 12.8817 12.266 12.9846 12.0097 12.9868C11.7533 12.989 11.5064 12.8903 11.3221 12.7122V12.7142Z" fill="#552EE5"/>
</svg>
