<svg width="16" height="16" viewBox="0 0 16 16" fill="none" xmlns="http://www.w3.org/2000/svg">
<path d="M9.28955 15.8959C9.2229 15.9067 9.15601 15.9167 9.08887 15.9259C9.15601 15.9167 9.2229 15.9067 9.28955 15.8959Z" fill="#EBEFF5"/>
<path d="M9.45007 15.8685C9.41821 15.8744 9.38635 15.8798 9.35449 15.8853C9.38635 15.8798 9.41821 15.8744 9.45007 15.8685Z" fill="#EBEFF5"/>
<path d="M8.91101 15.9481C8.83301 15.9569 8.75452 15.9647 8.67578 15.9713C8.75452 15.9647 8.83301 15.9569 8.91101 15.9481Z" fill="#EBEFF5"/>
<path d="M9.06396 15.9293C9.02649 15.9343 8.98877 15.939 8.95117 15.9434C8.98877 15.939 9.02649 15.9343 9.06396 15.9293Z" fill="#EBEFF5"/>
<path d="M9.66748 15.8253C9.6394 15.8313 9.61121 15.8373 9.58301 15.843C9.61121 15.8373 9.6394 15.8313 9.66748 15.8253Z" fill="#EBEFF5"/>
<path d="M10.2087 15.691C10.186 15.6975 10.1633 15.7036 10.1406 15.71C10.1633 15.7036 10.186 15.6975 10.2087 15.691Z" fill="#EBEFF5"/>
<path d="M10.0449 15.7357C10.0203 15.7422 9.99548 15.7488 9.9707 15.755C9.99548 15.7488 10.0203 15.7423 10.0449 15.7357Z" fill="#EBEFF5"/>
<path d="M9.83081 15.7892C9.80469 15.7953 9.77832 15.801 9.75195 15.8069C9.77832 15.801 9.80469 15.7953 9.83081 15.7892Z" fill="#EBEFF5"/>
<path d="M8.67236 15.9716C8.63025 15.9751 8.58813 15.9783 8.5459 15.9811C8.58813 15.9783 8.63025 15.9751 8.67236 15.9716Z" fill="#EBEFF5"/>
<path d="M16 8C16 3.5824 12.4176 0 8 0C3.5824 0 0 3.5824 0 8C0 12.4176 3.5824 16 8 16C8.047 16 8.09375 15.999 8.14062 15.9982V9.77051H6.42188V7.76746H8.14062V6.29346C8.14062 4.58398 9.1842 3.65356 10.7091 3.65356C11.4393 3.65356 12.067 3.70801 12.25 3.7323V5.51892H11.1985C10.3689 5.51892 10.2083 5.91321 10.2083 6.4917V7.76746H12.1919L11.9333 9.77051H10.2083V15.6909C13.5521 14.7323 16 11.6516 16 8Z" fill="#EBEFF5"/>
<path d="M8.52808 15.9822C8.44482 15.9875 8.36121 15.9918 8.27734 15.9946C8.36121 15.9918 8.44482 15.9875 8.52808 15.9822Z" fill="#EBEFF5"/>
<path d="M8.27344 15.9949C8.22925 15.9963 8.18494 15.9974 8.14062 15.9982C8.18494 15.9974 8.22925 15.9963 8.27344 15.9949Z" fill="#EBEFF5"/>
</svg>
