<svg width="1332" height="500" viewBox="0 0 1332 500" fill="none" xmlns="http://www.w3.org/2000/svg">
<circle r="1" transform="matrix(-1 0 0 1 1298 75)" fill="white"/>
<circle r="1" transform="matrix(-1 0 0 1 623 284)" fill="white"/>
<circle r="1" transform="matrix(-1 0 0 1 446 447)" fill="white"/>
<circle r="1" transform="matrix(-1 0 0 1 753 498)" fill="white"/>
<circle r="1" transform="matrix(-1 0 0 1 970 451)" fill="white"/>
<circle cx="34" cy="75" r="1" fill="white"/>
<circle opacity="0.2" r="1" transform="matrix(-1 0 0 1 1270 1)" fill="white"/>
<circle opacity="0.2" cx="62" cy="1" r="1" fill="white"/>
<circle opacity="0.2" r="1" transform="matrix(-1 0 0 1 1190 12)" fill="white"/>
<circle opacity="0.2" cx="142" cy="12" r="1" fill="white"/>
<circle opacity="0.2" r="1" transform="matrix(-1 0 0 1 1166 230)" fill="white"/>
<circle opacity="0.2" r="1" transform="matrix(-1 0 0 1 969 262)" fill="white"/>
<circle opacity="0.2" cx="166" cy="230" r="1" fill="white"/>
<circle opacity="0.2" r="1" transform="matrix(-1 0 0 1 1071 160)" fill="white"/>
<circle opacity="0.2" cx="261" cy="160" r="1" fill="white"/>
<circle opacity="0.2" r="1" transform="matrix(-1 0 0 1 1283 312)" fill="white"/>
<circle opacity="0.2" cx="49" cy="312" r="1" fill="white"/>
<circle opacity="0.2" r="1" transform="matrix(-1 0 0 1 1282 459)" fill="white"/>
<circle opacity="0.2" cx="50" cy="459" r="1" fill="white"/>
<circle opacity="0.2" r="1" transform="matrix(-1 0 0 1 752 498)" fill="white"/>
<circle opacity="0.2" cx="580" cy="498" r="1" fill="white"/>
<circle opacity="0.2" r="1" transform="matrix(-1 0 0 1 971 449)" fill="white"/>
<circle opacity="0.2" cx="361" cy="449" r="1" fill="white"/>
<circle opacity="0.2" r="1" transform="matrix(-1 0 0 1 1331 450)" fill="white"/>
<circle opacity="0.2" cx="1" cy="450" r="1" fill="white"/>
<g opacity="0.2">
<circle cx="1298" cy="425" r="1" transform="rotate(180 1298 425)" fill="white"/>
<circle cx="623" cy="216" r="1" transform="rotate(180 623 216)" fill="white"/>
<circle cx="446" cy="53" r="1" transform="rotate(180 446 53)" fill="white"/>
<circle cx="753" cy="2" r="1" transform="rotate(180 753 2)" fill="white"/>
<circle cx="970" cy="49" r="1" transform="rotate(180 970 49)" fill="white"/>
<circle r="1" transform="matrix(1 0 0 -1 34 425)" fill="white"/>
<circle opacity="0.2" cx="1270" cy="499" r="1" transform="rotate(180 1270 499)" fill="white"/>
<circle opacity="0.2" r="1" transform="matrix(1 0 0 -1 62 499)" fill="white"/>
<circle opacity="0.2" cx="1190" cy="488" r="1" transform="rotate(180 1190 488)" fill="white"/>
<circle opacity="0.2" r="1" transform="matrix(1 0 0 -1 142 488)" fill="white"/>
<circle opacity="0.2" cx="1166" cy="270" r="1" transform="rotate(180 1166 270)" fill="white"/>
<circle opacity="0.2" cx="969" cy="238" r="1" transform="rotate(180 969 238)" fill="white"/>
<circle opacity="0.2" r="1" transform="matrix(1 0 0 -1 166 270)" fill="white"/>
<circle opacity="0.2" cx="1071" cy="340" r="1" transform="rotate(180 1071 340)" fill="white"/>
<circle opacity="0.2" r="1" transform="matrix(1 0 0 -1 261 340)" fill="white"/>
<circle opacity="0.2" cx="1283" cy="188" r="1" transform="rotate(180 1283 188)" fill="white"/>
<circle opacity="0.2" r="1" transform="matrix(1 0 0 -1 49 188)" fill="white"/>
<circle opacity="0.2" cx="1282" cy="41" r="1" transform="rotate(180 1282 41)" fill="white"/>
<circle opacity="0.2" r="1" transform="matrix(1 0 0 -1 50 41)" fill="white"/>
<circle opacity="0.2" cx="752" cy="2" r="1" transform="rotate(180 752 2)" fill="white"/>
<circle opacity="0.2" r="1" transform="matrix(1 0 0 -1 580 2)" fill="white"/>
<circle opacity="0.2" cx="971" cy="51" r="1" transform="rotate(180 971 51)" fill="white"/>
<circle opacity="0.2" r="1" transform="matrix(1 0 0 -1 361 51)" fill="white"/>
<circle opacity="0.2" cx="1331" cy="50" r="1" transform="rotate(180 1331 50)" fill="white"/>
<circle opacity="0.2" r="1" transform="matrix(1 0 0 -1 1 50)" fill="white"/>
</g>
</svg>
