<svg width="170" height="40" viewBox="0 0 170 40" fill="none" xmlns="http://www.w3.org/2000/svg">
<g clip-path="url(#clip0)">
<path d="M37.0291 3.34093C36.4997 5.61366 35.1671 10.6591 33.2467 13.2318C33.2055 13.2856 33.1504 13.3268 33.0877 13.3511C33.0249 13.3754 32.9567 13.3818 32.8906 13.3696C32.8245 13.3574 32.7629 13.3271 32.7126 13.282C32.6623 13.2369 32.6251 13.1787 32.6051 13.1137C32.1869 11.6483 31.4442 10.2989 30.4335 9.1682C29.3184 8.14189 27.9862 7.38779 26.539 6.96366C26.4755 6.94347 26.4186 6.90621 26.3743 6.85584C26.3301 6.80548 26.3002 6.7439 26.2877 6.67766C26.2753 6.61143 26.2808 6.54302 26.3037 6.47972C26.3267 6.41642 26.3661 6.3606 26.4178 6.3182C28.9618 4.37275 33.9422 3.0182 36.1856 2.48184C36.3032 2.45427 36.4257 2.45643 36.5423 2.48814C36.6589 2.51985 36.7659 2.58012 36.8541 2.66366C36.9368 2.75275 36.9962 2.86141 37.0267 2.97972C37.0573 3.09803 37.0581 3.22222 37.0291 3.34093Z" fill="#EE5A59"/>
<path d="M39.4838 20.0014C39.4849 24.3723 38.0725 28.6232 35.4628 32.1038C32.8531 35.5845 29.1897 38.1032 25.0331 39.2747C20.8765 40.4461 16.4555 40.2059 12.4464 38.5906C8.43731 36.9754 5.06093 34.0741 2.83375 30.3306C0.606564 26.5871 -0.348785 22.2075 0.113846 17.8618C0.576477 13.5161 2.43161 9.44362 5.39546 6.26729C8.35931 3.09096 12.2687 0.985711 16.5255 0.273595C20.7823 -0.43852 25.1523 0.28171 28.9667 2.32411C27.8683 2.76664 26.81 3.30503 25.8036 3.9332C24.2502 3.32289 22.6153 2.9521 20.9533 2.8332C12.1861 2.21502 2.6921 10.1241 4.93549 15.0559C6.65842 18.8014 3.58946 19.665 4.75602 21.7741C5.05664 22.3196 5.77901 22.7105 6.3264 22.9968C13.5322 26.7832 18.3959 19.4923 19.7419 20.0014C20.2444 21.365 13.0476 26.2968 16.7806 33.5787C17.0678 34.1377 17.4492 34.865 17.9921 35.1696C20.0739 36.3377 20.9264 33.2423 24.6235 34.9923C29.4917 37.2741 37.2987 27.6559 36.6885 18.7696C36.569 17.0877 36.203 15.4332 35.6027 13.8605C36.2216 12.8482 36.753 11.7836 37.191 10.6787C38.6944 13.5503 39.4815 16.7509 39.4838 20.0014Z" fill="url(#paint0_linear)"/>
<path d="M58.5434 25.1818C57.4245 25.2128 56.3218 24.9059 55.3757 24.3C54.5088 23.7274 53.8601 22.873 53.5361 21.8773L54.6937 21.2C54.9044 21.9915 55.3803 22.6841 56.0398 23.1591C56.7872 23.6587 57.6712 23.9068 58.5658 23.8682C59.3992 23.9139 60.2234 23.672 60.9034 23.1818C61.1726 22.9764 61.3892 22.7087 61.5352 22.4011C61.6811 22.0934 61.7522 21.7548 61.7425 21.4136C61.7609 21.1015 61.6995 20.7899 61.5643 20.5088C61.4292 20.2277 61.2247 19.9867 60.9707 19.8091C60.179 19.3187 59.3245 18.9409 58.4312 18.6864C57.4653 18.4139 56.5289 18.0439 55.636 17.5818C55.1582 17.3233 54.7611 16.935 54.4892 16.4604C54.2174 15.9859 54.0815 15.4439 54.097 14.8954C54.0741 14.3783 54.1699 13.8628 54.377 13.3896C54.5841 12.9163 54.8968 12.4982 55.2905 12.1682C56.1247 11.4912 57.17 11.1382 58.2383 11.1727C59.2131 11.1502 60.1703 11.438 60.9752 11.9954C61.7317 12.5194 62.3309 13.2444 62.7071 14.0909L61.572 14.7273C61.3326 14.0409 60.8801 13.4516 60.2823 13.0476C59.6846 12.6436 58.9737 12.4467 58.2562 12.4864C57.5315 12.4494 56.8165 12.6678 56.2327 13.1045C55.9801 13.3093 55.7789 13.5717 55.6455 13.8703C55.5122 14.169 55.4505 14.4953 55.4655 14.8227C55.4409 15.118 55.4915 15.4147 55.6125 15.6845C55.7335 15.9543 55.9207 16.1881 56.1564 16.3636C56.8678 16.8152 57.6401 17.1597 58.4492 17.3864L59.4991 17.7454C59.71 17.8182 60.0195 17.9318 60.4234 18.0954C60.7341 18.2096 61.0343 18.351 61.3207 18.5182C61.5151 18.6394 61.7485 18.8076 62.0207 19.0227C62.2585 19.1935 62.4612 19.4097 62.6174 19.6591C62.755 19.9033 62.8649 20.1625 62.9449 20.4318C63.0452 20.7475 63.0952 21.0774 63.093 21.4091C63.1114 21.9354 63.0078 22.4588 62.7904 22.9371C62.573 23.4155 62.2479 23.8356 61.8412 24.1636C60.8939 24.8846 59.7265 25.245 58.5434 25.1818Z" fill="white"/>
<path d="M70.3707 15.05C71.0272 15.0451 71.678 15.173 72.2851 15.426C72.8922 15.6791 73.4434 16.0524 73.9064 16.5239C74.3693 16.9955 74.7347 17.5558 74.9813 18.1722C75.2278 18.7886 75.3505 19.4486 75.3421 20.1137C75.3511 20.7791 75.2289 21.4396 74.9826 22.0565C74.7363 22.6734 74.371 23.2343 73.908 23.7064C73.445 24.1784 72.8936 24.552 72.2862 24.8054C71.6788 25.0588 71.0276 25.1867 70.3707 25.1818C69.5934 25.2145 68.8218 25.0341 68.1372 24.6597C67.4526 24.2853 66.8803 23.7308 66.4807 23.0546V28.8182H65.2109V15.2818H66.4807V17.1773C66.8803 16.5011 67.4526 15.9465 68.1372 15.5722C68.8218 15.1978 69.5934 15.0174 70.3707 15.05ZM67.58 22.8318C68.2966 23.5272 69.2533 23.9109 70.2456 23.9011C71.2379 23.8913 72.187 23.4887 72.8901 22.7793C73.5932 22.07 73.9946 21.1101 74.0084 20.1049C74.0223 19.0998 73.6475 18.129 72.9641 17.4C72.2474 16.7047 71.2907 16.3209 70.2985 16.3307C69.3062 16.3406 68.3571 16.7432 67.654 17.4525C66.9508 18.1619 66.5495 19.1217 66.5356 20.1269C66.5218 21.1321 66.8966 22.1029 67.58 22.8318Z" fill="white"/>
<path d="M85.7424 15.2818H87.0167V24.95H85.7424V23.0545C85.3435 23.7314 84.7714 24.2865 84.0866 24.661C83.4018 25.0355 82.6299 25.2154 81.8524 25.1818C81.1965 25.183 80.547 25.0525 79.9412 24.7979C79.3355 24.5432 78.7856 24.1694 78.3233 23.6982C77.861 23.2269 77.4955 22.6674 77.248 22.0522C77.0004 21.4369 76.8757 20.778 76.881 20.1136C76.8763 19.4496 77.0014 18.7912 77.2493 18.1765C77.4971 17.5618 77.8627 17.0029 78.3249 16.5321C78.7871 16.0612 79.3368 15.6879 79.9423 15.4335C80.5477 15.1791 81.1969 15.0488 81.8524 15.05C82.6299 15.0164 83.4018 15.1964 84.0866 15.5708C84.7714 15.9453 85.3435 16.5004 85.7424 17.1773V15.2818ZM79.2545 22.8318C79.9712 23.5271 80.9279 23.9109 81.9202 23.9011C82.9124 23.8913 83.8615 23.4887 84.5647 22.7793C85.2678 22.0699 85.6692 21.1101 85.683 20.1049C85.6968 19.0997 85.322 18.1289 84.6387 17.4C83.9182 16.6892 82.9523 16.2914 81.9466 16.2914C80.9409 16.2914 79.975 16.6892 79.2545 17.4C78.5501 18.1238 78.1551 19.0994 78.1551 20.1159C78.1551 21.1324 78.5501 22.108 79.2545 22.8318Z" fill="white"/>
<path d="M94.2223 25.1818C93.5524 25.2019 92.8855 25.0828 92.2628 24.8318C91.6401 24.5809 91.0747 24.2034 90.6014 23.7227C90.1295 23.2534 89.7577 22.6909 89.5092 22.0701C89.2606 21.4493 89.1407 20.7833 89.1567 20.1136C89.141 19.4446 89.2612 18.7794 89.5097 18.1594C89.7582 17.5393 90.1298 16.9776 90.6014 16.509C91.4144 15.7264 92.454 15.229 93.5671 15.0898C94.6801 14.9507 95.8079 15.1773 96.7842 15.7363C97.5122 16.1619 98.091 16.8071 98.4399 17.5818L97.363 18.1818C97.1012 17.6057 96.6661 17.1284 96.1202 16.8181C95.5458 16.4722 94.8905 16.2885 94.2223 16.2863C93.4738 16.2863 92.742 16.5108 92.1192 16.9314C91.4964 17.352 91.0105 17.95 90.7226 18.65C90.4347 19.3499 90.3578 20.1205 90.5015 20.8647C90.6452 21.6089 91.0031 22.2933 91.5302 22.8318C92.1322 23.4257 92.9085 23.8054 93.742 23.9136C94.5755 24.0218 95.4212 23.8527 96.1516 23.4318C96.7123 23.107 97.177 22.6362 97.4976 22.0681L98.561 22.6863C98.1615 23.4511 97.5523 24.0825 96.8067 24.5045C96.0209 24.9613 95.1282 25.1953 94.2223 25.1818Z" fill="white"/>
<path d="M104.699 15.05C105.35 15.0268 105.998 15.151 106.596 15.4136C107.193 15.6763 107.726 16.0707 108.154 16.5682C109.024 17.5524 109.497 18.833 109.477 20.1545C109.475 20.355 109.463 20.5553 109.441 20.7545H100.979C101.073 21.6663 101.52 22.5032 102.222 23.0818C102.959 23.6715 103.877 23.9775 104.816 23.9454C105.475 23.9619 106.127 23.8053 106.709 23.4909C107.214 23.2168 107.632 22.804 107.916 22.3L109.029 22.9591C108.599 23.6439 108.001 24.2033 107.292 24.5818C106.521 24.9916 105.66 25.198 104.789 25.1818C104.109 25.2089 103.431 25.0959 102.795 24.8498C102.16 24.6037 101.58 24.2295 101.092 23.75C100.62 23.2758 100.249 22.7082 100.004 22.0825C99.7584 21.4568 99.6429 20.7866 99.6647 20.1136C99.6453 19.4406 99.7623 18.7707 100.009 18.1453C100.255 17.52 100.625 16.9524 101.097 16.4778C101.568 16.0032 102.131 15.6316 102.749 15.386C103.368 15.1404 104.03 15.0261 104.694 15.05H104.699ZM104.699 16.2863C103.778 16.2593 102.882 16.5838 102.186 17.1954C101.511 17.7927 101.08 18.6245 100.979 19.5273H108.158C108.081 18.6116 107.66 17.7608 106.983 17.15C106.352 16.588 105.539 16.2806 104.699 16.2863Z" fill="white"/>
<path d="M119.183 24.95L116.334 20H113.714V24.95H111.497V11.4136H116.881C117.452 11.4024 118.018 11.5091 118.547 11.7271C119.075 11.9452 119.554 12.27 119.955 12.6818C120.363 13.0799 120.686 13.5591 120.903 14.0894C121.12 14.6197 121.226 15.1897 121.215 15.7636C121.22 16.6135 120.961 17.4434 120.475 18.1364C119.997 18.8372 119.324 19.3783 118.541 19.6909L121.592 24.95H119.183ZM113.714 13.5046V18.0273H116.89C117.173 18.0322 117.453 17.9759 117.712 17.8623C117.971 17.7486 118.204 17.5802 118.393 17.3682C118.792 16.9314 119.013 16.3585 119.013 15.7636C119.013 15.1688 118.792 14.5959 118.393 14.1591C118.203 13.9484 117.97 13.7811 117.711 13.6683C117.452 13.5555 117.172 13.4996 116.89 13.5046H113.714Z" fill="white"/>
<path d="M127.219 25.2001C126.554 25.2112 125.894 25.087 125.277 24.8348C124.66 24.5826 124.1 24.2076 123.629 23.7319C123.145 23.2642 122.763 22.6991 122.507 22.0728C122.251 21.4466 122.128 20.7731 122.144 20.0955C122.127 19.4179 122.251 18.7443 122.507 18.118C122.762 17.4918 123.145 16.9267 123.629 16.4592C124.6 15.5168 125.892 14.9907 127.237 14.9907C128.581 14.9907 129.873 15.5168 130.844 16.4592C131.786 17.4205 132.315 18.7203 132.315 20.0751C132.315 21.4298 131.786 22.7296 130.844 23.691C130.372 24.1785 129.808 24.5637 129.184 24.8231C128.561 25.0825 127.892 25.2108 127.219 25.2001ZM125.078 22.3001C125.656 22.8468 126.42 23.1441 127.21 23.129C128 23.1138 128.753 22.7875 129.31 22.2191C129.866 21.6507 130.182 20.8851 130.19 20.0846C130.199 19.2842 129.899 18.512 129.354 17.9319C128.777 17.3852 128.012 17.0879 127.222 17.103C126.432 17.1181 125.679 17.4445 125.123 18.0129C124.567 18.5812 124.251 19.3469 124.242 20.1473C124.234 20.9477 124.534 21.7199 125.078 22.3001Z" fill="white"/>
<path d="M138.736 25.2C138.064 25.2186 137.396 25.0979 136.772 24.8455C136.148 24.593 135.581 24.214 135.107 23.7318C134.629 23.2601 134.254 22.6936 134.003 22.0679C133.752 21.4422 133.631 20.7707 133.648 20.0955C133.63 19.4202 133.75 18.7483 134.001 18.1225C134.252 17.4966 134.629 16.9302 135.107 16.4591C135.582 15.9786 136.149 15.6013 136.773 15.3504C137.397 15.0995 138.065 14.9803 138.736 15C139.635 14.9906 140.519 15.2244 141.298 15.6773C142.04 16.0966 142.643 16.7293 143.03 17.4955L141.235 18.5364C141.023 18.0787 140.677 17.698 140.244 17.4455C139.778 17.1764 139.25 17.0398 138.714 17.05C138.319 17.0389 137.926 17.1102 137.559 17.2596C137.193 17.4089 136.86 17.6331 136.583 17.9182C136.157 18.3427 135.866 18.8862 135.748 19.4792C135.629 20.0722 135.688 20.6876 135.917 21.2463C136.146 21.8051 136.535 22.2818 137.033 22.6153C137.531 22.9489 138.117 23.124 138.714 23.1182C139.25 23.1241 139.779 22.9844 140.244 22.7137C140.681 22.4582 141.039 22.0833 141.276 21.6318L143.071 22.6546C142.66 23.4174 142.046 24.0476 141.298 24.4728C140.525 24.9452 139.639 25.1965 138.736 25.2Z" fill="white"/>
<path d="M153.085 24.9499H150.599L146.651 20.4818V24.9499H144.573V11.4136H146.651V19.5454L150.388 15.2727H152.932L148.692 19.9999L153.085 24.9499Z" fill="white"/>
<path d="M155.36 21.0045C155.48 21.6873 155.86 22.2948 156.419 22.6954C157.015 23.1037 157.723 23.3106 158.442 23.2863C158.923 23.3171 159.404 23.2231 159.839 23.0131C160.274 22.8031 160.649 22.4841 160.928 22.0863L162.642 23.0954C161.691 24.4984 160.285 25.1999 158.424 25.1999C157.728 25.2321 157.033 25.121 156.381 24.8733C155.728 24.6256 155.132 24.2466 154.629 23.759C154.153 23.2868 153.779 22.7199 153.53 22.0941C153.282 21.4682 153.164 20.797 153.184 20.1227C153.168 19.4452 153.289 18.7715 153.54 18.1433C153.791 17.515 154.166 16.9453 154.642 16.4693C155.118 15.9933 155.685 15.621 156.309 15.3754C156.932 15.1297 157.599 15.0159 158.267 15.0409C158.918 15.0206 159.566 15.1429 160.166 15.3994C160.766 15.656 161.305 16.0406 161.745 16.5272C162.645 17.5144 163.129 18.8198 163.091 20.1636C163.084 20.4543 163.058 20.7444 163.014 21.0318L155.36 21.0045ZM155.36 19.3045H161.022C160.931 18.6087 160.583 17.9737 160.049 17.5272C159.537 17.1235 158.903 16.9116 158.254 16.9272C157.558 16.9025 156.876 17.1279 156.329 17.5636C155.803 18.0037 155.452 18.6222 155.342 19.3045H155.36Z" fill="white"/>
<path d="M170 17.2728H167.608V21.9319C167.594 22.0868 167.61 22.243 167.657 22.3913C167.703 22.5397 167.778 22.6771 167.877 22.7955C168.103 22.9852 168.388 23.0868 168.681 23.0819C169.12 23.1065 169.56 23.1065 170 23.0819V24.9592C168.407 25.1501 167.263 25.0137 166.572 24.541C165.881 24.0683 165.531 23.2046 165.531 21.941V17.2728H163.768V15.2819H165.54V13.1819L167.617 12.5637V15.2683H170.009L170 17.2728Z" fill="white"/>
</g>
<defs>
<linearGradient id="paint0_linear" x1="6.86481" y1="35.1559" x2="33.0404" y2="5.14218" gradientUnits="userSpaceOnUse">
<stop stop-color="#552EE5"/>
<stop offset="1" stop-color="#EE5A59"/>
</linearGradient>
<clipPath id="clip0">
<rect width="170" height="40" fill="white"/>
</clipPath>
</defs>
</svg>
