<svg width="24" height="26" viewBox="0 0 24 26" fill="none" xmlns="http://www.w3.org/2000/svg">
<path d="M21.3966 8.97803L7.8089 1.1855C7.07365 0.760931 6.23913 0.538519 5.39011 0.540851C4.54109 0.543183 3.7078 0.770176 2.9749 1.19878C2.24199 1.62737 1.63558 2.24231 1.21724 2.98112C0.79891 3.71994 0.583563 4.5563 0.593075 5.40528V21.0466C0.593075 22.3224 1.0999 23.546 2.00205 24.4482C2.90421 25.3503 4.12779 25.8572 5.40363 25.8572C6.2482 25.8557 7.07759 25.6326 7.8089 25.2101L21.3966 17.4176C22.1267 16.995 22.7329 16.3879 23.1542 15.6571C23.5756 14.9264 23.7975 14.0976 23.7975 13.2541C23.7975 12.4105 23.5756 11.5818 23.1542 10.851C22.7329 10.1202 22.1267 9.51311 21.3966 9.09055V8.97803ZM19.99 14.8717L6.40231 22.7767C6.09776 22.9493 5.75368 23.04 5.40363 23.04C5.05357 23.04 4.70949 22.9493 4.40494 22.7767C4.10126 22.6014 3.84908 22.3492 3.67377 22.0455C3.49846 21.7418 3.4062 21.3973 3.40626 21.0466V5.34902C3.4062 4.99835 3.49846 4.65384 3.67377 4.35014C3.84908 4.04644 4.10126 3.79424 4.40494 3.61891C4.71075 3.44893 5.0538 3.35712 5.40363 3.35165C5.75321 3.35883 6.09586 3.45052 6.40231 3.61891L19.99 11.4677C20.2938 11.643 20.5461 11.8951 20.7215 12.1988C20.8969 12.5025 20.9893 12.8471 20.9893 13.1978C20.9893 13.5485 20.8969 13.8931 20.7215 14.1968C20.5461 14.5005 20.2938 14.7527 19.99 14.9279V14.8717Z" fill="white"/>
</svg>
