<svg width="24" height="24" viewBox="0 0 24 24" fill="none" xmlns="http://www.w3.org/2000/svg">
<path d="M2.25 9.76099V2.26099C2.25 1.86316 2.40804 1.48163 2.68934 1.20033C2.97064 0.919022 3.35218 0.760986 3.75 0.760986H21.75C22.1478 0.760986 22.5294 0.919022 22.8107 1.20033C23.092 1.48163 23.25 1.86316 23.25 2.26099V14.261C23.25 14.6588 23.092 15.0403 22.8107 15.3216C22.5294 15.603 22.1478 15.761 21.75 15.761H14.25" stroke="white" stroke-width="1.5" stroke-linecap="round" stroke-linejoin="round"/>
<path d="M15.349 23.261C14.595 22.416 12.67 21.761 10.312 20.89C9.594 20.624 9.712 18.752 10.03 18.402C10.5355 17.8542 10.9194 17.2058 11.1567 16.4992C11.3941 15.7926 11.4793 15.0438 11.407 14.302C11.407 11.96 9.879 10.513 8.05 10.513C6.221 10.513 4.692 11.958 4.692 14.3C4.6198 15.0419 4.70524 15.7907 4.94272 16.4973C5.1802 17.2039 5.56436 17.8523 6.07 18.4C6.388 18.75 6.505 20.622 5.788 20.888C3.429 21.761 1.505 22.414 0.75 23.259" stroke="white" stroke-width="1.5" stroke-linecap="round" stroke-linejoin="round"/>
<path d="M14.25 11.193H15.75C15.9489 11.193 16.1397 11.114 16.2803 10.9733C16.421 10.8327 16.5 10.6419 16.5 10.443V9.69299L19.5 10.443V5.94299L16.5 6.69299V5.94299C16.5 5.74408 16.421 5.55332 16.2803 5.41266C16.1397 5.27201 15.9489 5.19299 15.75 5.19299H11.25C11.0511 5.19299 10.8603 5.27201 10.7197 5.41266C10.579 5.55332 10.5 5.74408 10.5 5.94299V8.19299" stroke="white" stroke-width="1.5" stroke-linecap="round" stroke-linejoin="round"/>
</svg>
