<svg width="24" height="24" viewBox="0 0 24 24" fill="none" xmlns="http://www.w3.org/2000/svg">
<path d="M17.25 0.75H3.75C2.95435 0.75 2.19129 1.06607 1.62868 1.62868C1.06607 2.19129 0.75 2.95435 0.75 3.75V21.75C0.75 22.1478 0.908035 22.5294 1.18934 22.8107C1.47064 23.092 1.85218 23.25 2.25 23.25H3.685" stroke="white" stroke-width="1.5" stroke-linecap="round" stroke-linejoin="round"/>
<path d="M3.75 4.5H10.5" stroke="white" stroke-width="1.5" stroke-linecap="round" stroke-linejoin="round"/>
<path d="M3.75 7.5H10.5" stroke="white" stroke-width="1.5" stroke-linecap="round" stroke-linejoin="round"/>
<path d="M3.75 10.5H7.109" stroke="white" stroke-width="1.5" stroke-linecap="round" stroke-linejoin="round"/>
<path d="M15 9.75V3C15.0018 2.40383 15.2395 1.83261 15.661 1.41105C16.0826 0.989492 16.6538 0.751846 17.25 0.75C17.8463 0.751584 18.4176 0.989145 18.8392 1.41076C19.2609 1.83237 19.4984 2.40375 19.5 3V4.5H15" stroke="white" stroke-width="1.5" stroke-linecap="round" stroke-linejoin="round"/>
<path d="M21.7499 19.61L16.9629 20.568" stroke="white" stroke-width="1.5" stroke-linecap="round" stroke-linejoin="round"/>
<path d="M17.4377 15.138L15.1777 16.092C14.9995 16.1658 14.8081 16.2026 14.6152 16.2C14.4223 16.1974 14.2319 16.1556 14.0557 16.077C13.8772 15.9969 13.7162 15.8822 13.5822 15.7396C13.4481 15.5969 13.3436 15.4292 13.2747 15.246C13.1392 14.8978 13.1363 14.512 13.2664 14.1617C13.3965 13.8115 13.6507 13.5212 13.9807 13.346L16.2397 12.218C16.4842 12.0921 16.7523 12.0186 17.0268 12.0024C17.3013 11.9863 17.5762 12.0277 17.8337 12.124L22.4727 13.952" stroke="white" stroke-width="1.5" stroke-linecap="round" stroke-linejoin="round"/>
<path d="M8.2002 20.606H9.8002L12.8492 22.932C12.9918 23.0932 13.1915 23.1927 13.406 23.2094C13.6206 23.2262 13.8332 23.159 13.9992 23.022L18.2592 19.504C18.4276 19.3647 18.5351 19.1653 18.5592 18.9481C18.5833 18.7309 18.522 18.5128 18.3882 18.34L16.0412 15.731" stroke="white" stroke-width="1.5" stroke-linecap="round" stroke-linejoin="round"/>
<path d="M13.7363 13.506L13.4893 13.306C13.2442 13.1257 12.9572 13.0109 12.6553 12.9725C12.3535 12.934 12.0469 12.973 11.7643 13.086L8.19434 14.6" stroke="white" stroke-width="1.5" stroke-linecap="round" stroke-linejoin="round"/>
<path d="M6.75 21.356H7.05C7.35091 21.3721 7.64598 21.2686 7.8708 21.0679C8.09563 20.8673 8.23194 20.5858 8.25 20.285V14.927C8.23194 14.6262 8.09563 14.3448 7.8708 14.1441C7.64598 13.9435 7.35091 13.8399 7.05 13.856H6.75" stroke="white" stroke-width="1.5" stroke-linecap="round" stroke-linejoin="round"/>
<path d="M23.25 21.356H22.95C22.6491 21.3721 22.354 21.2686 22.1292 21.0679C21.9044 20.8673 21.7681 20.5858 21.75 20.285V14.927C21.7681 14.6262 21.9044 14.3448 22.1292 14.1441C22.354 13.9435 22.6491 13.8399 22.95 13.856H23.25" stroke="white" stroke-width="1.5" stroke-linecap="round" stroke-linejoin="round"/>
</svg>
