<svg width="24" height="22" viewBox="0 0 24 22" fill="none" xmlns="http://www.w3.org/2000/svg">
<path d="M2.25 20.75C1.85218 20.75 1.47064 20.592 1.18934 20.3107C0.908035 20.0294 0.75 19.6478 0.75 19.25V2.865C0.751319 2.43708 0.921893 2.02707 1.22448 1.72448C1.52707 1.42189 1.93708 1.25132 2.365 1.25H21.643C22.0688 1.25132 22.4768 1.42105 22.7779 1.72214C23.079 2.02322 23.2487 2.4312 23.25 2.857V19.135C23.2487 19.5629 23.0781 19.9729 22.7755 20.2755C22.4729 20.5781 22.0629 20.7487 21.635 20.75H2.25Z" stroke="white" stroke-width="1.5" stroke-linecap="round" stroke-linejoin="round"/>
<path d="M23.25 5.75H0.75" stroke="white" stroke-width="1.5" stroke-linecap="round" stroke-linejoin="round"/>
<path d="M16.5 10.25L19.5 13.25L16.5 16.25" stroke="white" stroke-width="1.5" stroke-linecap="round" stroke-linejoin="round"/>
<path d="M7.5 10.25L4.5 13.25L7.5 16.25" stroke="white" stroke-width="1.5" stroke-linecap="round" stroke-linejoin="round"/>
<path d="M13.5 10.25L10.5 16.25" stroke="white" stroke-width="1.5" stroke-linecap="round" stroke-linejoin="round"/>
</svg>
