<svg width="24" height="24" viewBox="0 0 24 24" fill="none" xmlns="http://www.w3.org/2000/svg">
<path d="M22.9167 6.20002L12.7077 0.92202C12.4888 0.808984 12.2461 0.75 11.9997 0.75C11.7534 0.75 11.5106 0.808984 11.2917 0.92202L1.08272 6.20002C0.982456 6.25195 0.898391 6.33043 0.839713 6.4269C0.781035 6.52337 0.75 6.63411 0.75 6.74702C0.75 6.85993 0.781035 6.97067 0.839713 7.06714C0.898391 7.16361 0.982456 7.2421 1.08272 7.29402L11.2917 12.575C11.5106 12.6881 11.7534 12.747 11.9997 12.747C12.2461 12.747 12.4888 12.6881 12.7077 12.575L22.9167 7.30002C23.017 7.2481 23.1011 7.16961 23.1597 7.07314C23.2184 6.97667 23.2494 6.86593 23.2494 6.75302C23.2494 6.64011 23.2184 6.52937 23.1597 6.4329C23.1011 6.33643 23.017 6.25795 22.9167 6.20602V6.20002Z" stroke="white" stroke-width="1.5" stroke-linecap="round" stroke-linejoin="round"/>
<path d="M5.09972 9.375L1.08272 11.453C0.982456 11.5049 0.898391 11.5834 0.839713 11.6799C0.781035 11.7763 0.75 11.8871 0.75 12C0.75 12.1129 0.781035 12.2237 0.839713 12.3201C0.898391 12.4166 0.982456 12.4951 1.08272 12.547L11.2917 17.828C11.5106 17.941 11.7534 18 11.9997 18C12.2461 18 12.4888 17.941 12.7077 17.828L22.9167 12.547C23.017 12.4951 23.1011 12.4166 23.1597 12.3201C23.2184 12.2237 23.2494 12.1129 23.2494 12C23.2494 11.8871 23.2184 11.7763 23.1597 11.6799C23.1011 11.5834 23.017 11.5049 22.9167 11.453L18.8997 9.375" stroke="white" stroke-width="1.5" stroke-linecap="round" stroke-linejoin="round"/>
<path d="M5.09972 14.625L1.08272 16.7C0.982456 16.7519 0.898391 16.8304 0.839713 16.9269C0.781035 17.0233 0.75 17.1341 0.75 17.247C0.75 17.3599 0.781035 17.4707 0.839713 17.5671C0.898391 17.6636 0.982456 17.7421 1.08272 17.794L11.2917 23.075C11.5106 23.188 11.7534 23.247 11.9997 23.247C12.2461 23.247 12.4888 23.188 12.7077 23.075L22.9167 17.8C23.017 17.7481 23.1011 17.6696 23.1597 17.5731C23.2184 17.4767 23.2494 17.3659 23.2494 17.253C23.2494 17.1401 23.2184 17.0293 23.1597 16.9329C23.1011 16.8364 23.017 16.7579 22.9167 16.706L18.8997 14.625" stroke="white" stroke-width="1.5" stroke-linecap="round" stroke-linejoin="round"/>
</svg>
