<svg width="507" height="223" viewBox="0 0 507 223" fill="none" xmlns="http://www.w3.org/2000/svg">
<g filter="url(#filter0_d)">
<path d="M130.757 53.8965C132.751 53.8965 134.396 54.6076 135.693 56.0298C137.004 57.438 137.659 59.167 137.659 61.2166C137.659 63.2662 137.004 65.0021 135.693 66.4243C134.396 67.8326 132.751 68.5367 130.757 68.5367H125.257V53.8965H130.757ZM130.757 67.491C132.458 67.491 133.852 66.8914 134.94 65.6923C136.028 64.4793 136.571 62.9874 136.571 61.2166C136.571 59.4458 136.028 57.9609 134.94 56.7618C133.852 55.5487 132.458 54.9422 130.757 54.9422H126.365V67.491H130.757Z" fill="white"/>
<path d="M144.949 57.8493C146.483 57.8493 147.724 58.3931 148.672 59.4807C149.634 60.5682 150.115 61.858 150.115 63.3499C150.115 63.4056 150.108 63.4893 150.094 63.6008C150.094 63.7124 150.094 63.7961 150.094 63.8518H140.62C140.745 65.023 141.212 65.9712 142.021 66.6962C142.843 67.4073 143.854 67.7628 145.053 67.7628C145.89 67.7628 146.622 67.5886 147.249 67.24C147.877 66.8914 148.351 66.4313 148.672 65.8596L149.592 66.4034C149.16 67.1284 148.546 67.7071 147.751 68.1393C146.957 68.5576 146.05 68.7667 145.033 68.7667C143.429 68.7667 142.111 68.2578 141.08 67.24C140.048 66.2082 139.532 64.8976 139.532 63.308C139.532 61.7464 140.034 60.4497 141.038 59.4179C142.056 58.3722 143.359 57.8493 144.949 57.8493ZM144.949 58.8532C143.764 58.8532 142.774 59.2227 141.979 59.9617C141.184 60.7007 140.731 61.6558 140.62 62.827H149.027C148.916 61.5861 148.47 60.617 147.689 59.9199C146.922 59.2088 146.009 58.8532 144.949 58.8532Z" fill="white"/>
<path d="M157.348 68.7667C155.773 68.7667 154.462 68.2439 153.417 67.1982C152.371 66.1524 151.848 64.8557 151.848 63.308C151.848 61.7604 152.371 60.4637 153.417 59.4179C154.462 58.3722 155.773 57.8493 157.348 57.8493C158.366 57.8493 159.287 58.0933 160.109 58.5813C160.932 59.0554 161.531 59.7038 161.908 60.5264L161.05 61.0284C160.744 60.3591 160.256 59.8293 159.586 59.4388C158.931 59.0484 158.185 58.8532 157.348 58.8532C156.094 58.8532 155.041 59.2855 154.19 60.1499C153.34 61.0005 152.915 62.0532 152.915 63.308C152.915 64.5629 153.34 65.6226 154.19 66.4871C155.041 67.3376 156.094 67.7628 157.348 67.7628C158.185 67.7628 158.931 67.5676 159.586 67.1772C160.256 66.7868 160.765 66.257 161.113 65.5877L161.991 66.1106C161.573 66.9193 160.946 67.5676 160.109 68.0557C159.287 68.5297 158.366 68.7667 157.348 68.7667Z" fill="white"/>
<path d="M168.97 68.7667C167.436 68.7667 166.133 68.2439 165.059 67.1982C163.999 66.1385 163.469 64.8418 163.469 63.308C163.469 61.7743 163.999 60.4846 165.059 59.4388C166.133 58.3792 167.436 57.8493 168.97 57.8493C170.49 57.8493 171.779 58.3792 172.839 59.4388C173.913 60.4846 174.45 61.7743 174.45 63.308C174.45 64.8418 173.913 66.1385 172.839 67.1982C171.779 68.2439 170.49 68.7667 168.97 68.7667ZM165.812 66.4661C166.676 67.3306 167.729 67.7628 168.97 67.7628C170.211 67.7628 171.257 67.3306 172.107 66.4661C172.958 65.6017 173.383 64.549 173.383 63.308C173.383 62.0671 172.958 61.0144 172.107 60.1499C171.257 59.2855 170.211 58.8532 168.97 58.8532C167.729 58.8532 166.676 59.2855 165.812 60.1499C164.961 61.0144 164.536 62.0671 164.536 63.308C164.536 64.549 164.961 65.6017 165.812 66.4661Z" fill="white"/>
<path d="M176.966 68.5367V53.269H178.012V68.5367H176.966Z" fill="white"/>
<path d="M190.437 58.0794H191.504V68.5367H190.437V66.1733C189.991 66.982 189.378 67.6164 188.597 68.0766C187.816 68.5367 186.931 68.7667 185.941 68.7667C184.449 68.7667 183.173 68.2439 182.113 67.1982C181.054 66.1385 180.524 64.8418 180.524 63.308C180.524 61.7743 181.054 60.4846 182.113 59.4388C183.173 58.3792 184.449 57.8493 185.941 57.8493C186.931 57.8493 187.816 58.0794 188.597 58.5395C189.378 58.9996 189.991 59.634 190.437 60.4427V58.0794ZM182.866 66.4661C183.731 67.3306 184.783 67.7628 186.024 67.7628C187.265 67.7628 188.311 67.3306 189.161 66.4661C190.012 65.6017 190.437 64.549 190.437 63.308C190.437 62.0671 190.012 61.0144 189.161 60.1499C188.311 59.2855 187.265 58.8532 186.024 58.8532C184.783 58.8532 183.731 59.2855 182.866 60.1499C182.016 61.0144 181.59 62.0671 181.59 63.308C181.59 64.549 182.016 65.6017 182.866 66.4661Z" fill="white"/>
<path d="M199.504 57.8493C200.745 57.8493 201.728 58.2328 202.453 58.9996C203.192 59.7526 203.562 60.7634 203.562 62.0323V68.5367H202.495V62.0323C202.495 61.0562 202.223 60.2824 201.68 59.7107C201.15 59.1391 200.397 58.8532 199.421 58.8532C198.347 58.8532 197.469 59.2088 196.786 59.9199C196.102 60.631 195.761 61.6628 195.761 63.0152V68.5367H194.715V58.0794H195.761V60.0663C196.514 58.5883 197.762 57.8493 199.504 57.8493Z" fill="white"/>
<path d="M215.744 53.8965H216.789V68.5367H215.744V66.1106C215.311 66.9332 214.698 67.5816 213.903 68.0557C213.122 68.5297 212.237 68.7667 211.247 68.7667C209.741 68.7667 208.458 68.2439 207.399 67.1982C206.353 66.1385 205.83 64.8418 205.83 63.308C205.83 61.7743 206.353 60.4846 207.399 59.4388C208.458 58.3792 209.741 57.8493 211.247 57.8493C212.237 57.8493 213.122 58.0864 213.903 58.5604C214.698 59.0345 215.311 59.6828 215.744 60.5055V53.8965ZM208.152 66.4661C209.016 67.3306 210.069 67.7628 211.31 67.7628C212.551 67.7628 213.596 67.3306 214.447 66.4661C215.311 65.6017 215.744 64.549 215.744 63.308C215.744 62.0671 215.311 61.0144 214.447 60.1499C213.596 59.2855 212.551 58.8532 211.31 58.8532C210.069 58.8532 209.016 59.2855 208.152 60.1499C207.301 61.0144 206.876 62.0671 206.876 63.308C206.876 64.549 207.301 65.6017 208.152 66.4661Z" fill="white"/>
<path d="M224.79 68.7667C223.256 68.7667 221.952 68.2439 220.879 67.1982C219.819 66.1385 219.289 64.8418 219.289 63.308C219.289 61.7743 219.819 60.4846 220.879 59.4388C221.952 58.3792 223.256 57.8493 224.79 57.8493C226.31 57.8493 227.599 58.3792 228.659 59.4388C229.733 60.4846 230.269 61.7743 230.269 63.308C230.269 64.8418 229.733 66.1385 228.659 67.1982C227.599 68.2439 226.31 68.7667 224.79 68.7667ZM221.632 66.4661C222.496 67.3306 223.549 67.7628 224.79 67.7628C226.031 67.7628 227.076 67.3306 227.927 66.4661C228.778 65.6017 229.203 64.549 229.203 63.308C229.203 62.0671 228.778 61.0144 227.927 60.1499C227.076 59.2855 226.031 58.8532 224.79 58.8532C223.549 58.8532 222.496 59.2855 221.632 60.1499C220.781 61.0144 220.356 62.0671 220.356 63.308C220.356 64.549 220.781 65.6017 221.632 66.4661Z" fill="white"/>
<path d="M238.571 53.8965H239.68V68.5367H238.571V53.8965Z" fill="white"/>
<path d="M252.324 53.8965H253.369V68.5367H252.324V66.1106C251.891 66.9332 251.278 67.5816 250.483 68.0557C249.702 68.5297 248.817 68.7667 247.827 68.7667C246.321 68.7667 245.038 68.2439 243.979 67.1982C242.933 66.1385 242.41 64.8418 242.41 63.308C242.41 61.7743 242.933 60.4846 243.979 59.4388C245.038 58.3792 246.321 57.8493 247.827 57.8493C248.817 57.8493 249.702 58.0864 250.483 58.5604C251.278 59.0345 251.891 59.6828 252.324 60.5055V53.8965ZM244.732 66.4661C245.596 67.3306 246.649 67.7628 247.89 67.7628C249.131 67.7628 250.176 67.3306 251.027 66.4661C251.891 65.6017 252.324 64.549 252.324 63.308C252.324 62.0671 251.891 61.0144 251.027 60.1499C250.176 59.2855 249.131 58.8532 247.89 58.8532C246.649 58.8532 245.596 59.2855 244.732 60.1499C243.881 61.0144 243.456 62.0671 243.456 63.308C243.456 64.549 243.881 65.6017 244.732 66.4661Z" fill="white"/>
<path d="M261.286 57.8493C262.82 57.8493 264.061 58.3931 265.009 59.4807C265.971 60.5682 266.452 61.858 266.452 63.3499C266.452 63.4056 266.445 63.4893 266.431 63.6008C266.431 63.7124 266.431 63.7961 266.431 63.8518H256.957C257.082 65.023 257.55 65.9712 258.358 66.6962C259.181 67.4073 260.192 67.7628 261.391 67.7628C262.227 67.7628 262.959 67.5886 263.587 67.24C264.214 66.8914 264.688 66.4313 265.009 65.8596L265.929 66.4034C265.497 67.1284 264.884 67.7071 264.089 68.1393C263.294 68.5576 262.388 68.7667 261.37 68.7667C259.766 68.7667 258.449 68.2578 257.417 67.24C256.385 66.2082 255.869 64.8976 255.869 63.308C255.869 61.7464 256.371 60.4497 257.375 59.4179C258.393 58.3722 259.697 57.8493 261.286 57.8493ZM261.286 58.8532C260.101 58.8532 259.111 59.2227 258.316 59.9617C257.522 60.7007 257.068 61.6558 256.957 62.827H265.365C265.253 61.5861 264.807 60.617 264.026 59.9199C263.259 59.2088 262.346 58.8532 261.286 58.8532Z" fill="white"/>
<path d="M270.005 55.3187C269.838 55.472 269.642 55.5487 269.419 55.5487C269.196 55.5487 269.001 55.472 268.834 55.3187C268.666 55.1514 268.583 54.9492 268.583 54.7121C268.583 54.4891 268.666 54.3008 268.834 54.1475C269.001 53.9801 269.196 53.8965 269.419 53.8965C269.642 53.8965 269.838 53.9801 270.005 54.1475C270.172 54.3008 270.256 54.4891 270.256 54.7121C270.256 54.9492 270.172 55.1514 270.005 55.3187ZM268.896 68.5367V58.0794H269.942V68.5367H268.896Z" fill="white"/>
<path d="M282.367 58.0794H283.434V68.5367H282.367V66.1733C281.921 66.982 281.308 67.6164 280.527 68.0766C279.746 68.5367 278.861 68.7667 277.871 68.7667C276.379 68.7667 275.103 68.2439 274.043 67.1982C272.984 66.1385 272.454 64.8418 272.454 63.308C272.454 61.7743 272.984 60.4846 274.043 59.4388C275.103 58.3792 276.379 57.8493 277.871 57.8493C278.861 57.8493 279.746 58.0794 280.527 58.5395C281.308 58.9996 281.921 59.634 282.367 60.4427V58.0794ZM274.796 66.4661C275.661 67.3306 276.714 67.7628 277.955 67.7628C279.195 67.7628 280.241 67.3306 281.092 66.4661C281.942 65.6017 282.367 64.549 282.367 63.308C282.367 62.0671 281.942 61.0144 281.092 60.1499C280.241 59.2855 279.195 58.8532 277.955 58.8532C276.714 58.8532 275.661 59.2855 274.796 60.1499C273.946 61.0144 273.521 62.0671 273.521 63.308C273.521 64.549 273.946 65.6017 274.796 66.4661Z" fill="white"/>
<path d="M287.356 60.8192C287.356 61.3351 287.572 61.7394 288.005 62.0323C288.437 62.3251 288.967 62.5481 289.594 62.7015C290.222 62.841 290.842 63.0013 291.456 63.1826C292.083 63.3638 292.613 63.6706 293.045 64.1028C293.477 64.5211 293.693 65.0858 293.693 65.7969C293.693 66.6613 293.345 67.3724 292.648 67.9302C291.964 68.4879 291.065 68.7667 289.95 68.7667C288.946 68.7667 288.095 68.5576 287.398 68.1393C286.715 67.7071 286.241 67.1424 285.976 66.4452L286.875 65.9224C287.07 66.494 287.433 66.9472 287.963 67.2818C288.507 67.6025 289.169 67.7628 289.95 67.7628C290.73 67.7628 291.372 67.5955 291.874 67.2609C292.39 66.9123 292.648 66.4243 292.648 65.7969C292.648 65.281 292.432 64.8697 291.999 64.5629C291.567 64.2562 291.037 64.0331 290.41 63.8937C289.782 63.7403 289.155 63.573 288.527 63.3917C287.914 63.2104 287.391 62.9107 286.959 62.4924C286.527 62.0741 286.311 61.5164 286.311 60.8192C286.311 59.9826 286.638 59.2785 287.294 58.7068C287.963 58.1352 288.82 57.8493 289.866 57.8493C290.703 57.8493 291.428 58.0376 292.041 58.414C292.669 58.7905 293.129 59.2994 293.421 59.9408L292.543 60.4427C292.334 59.9269 291.985 59.5364 291.497 59.2715C291.009 58.9927 290.466 58.8532 289.866 58.8532C289.155 58.8532 288.555 59.0345 288.067 59.397C287.593 59.7456 287.356 60.2197 287.356 60.8192Z" fill="white"/>
<path d="M126.532 89.1062C126.7 89.9009 127.083 90.5144 127.683 90.9467C128.282 91.365 129.014 91.5741 129.879 91.5741C131.078 91.5741 131.977 91.1419 132.577 90.2774L134.438 91.365C133.406 92.8847 131.879 93.6446 129.858 93.6446C128.157 93.6446 126.783 93.1287 125.738 92.097C124.692 91.0512 124.169 89.7336 124.169 88.1441C124.169 86.5825 124.685 85.2788 125.717 84.2331C126.748 83.1734 128.073 82.6436 129.69 82.6436C131.224 82.6436 132.479 83.1804 133.455 84.254C134.445 85.3276 134.94 86.6313 134.94 88.165C134.94 88.4021 134.912 88.7158 134.856 89.1062H126.532ZM126.511 87.2657H132.66C132.507 86.4152 132.151 85.7738 131.594 85.3416C131.05 84.9093 130.408 84.6932 129.669 84.6932C128.833 84.6932 128.136 84.9233 127.578 85.3834C127.02 85.8435 126.665 86.4709 126.511 87.2657Z" fill="white"/>
<path d="M142.303 78.7325H144.708V93.3728H142.303V78.7325Z" fill="white"/>
<path d="M158.906 82.6436C160.091 82.6436 161.047 83.027 161.772 83.7939C162.497 84.5607 162.859 85.5925 162.859 86.8892V93.3728H160.6V87.0356C160.6 86.3106 160.419 85.7529 160.057 85.3625C159.694 84.9581 159.199 84.7559 158.572 84.7559C157.874 84.7559 157.317 84.986 156.898 85.4461C156.494 85.9062 156.292 86.5964 156.292 87.5167V93.3728H154.033V87.0356C154.033 86.3106 153.859 85.7529 153.51 85.3625C153.176 84.9581 152.695 84.7559 152.067 84.7559C151.384 84.7559 150.826 84.993 150.394 85.467C149.962 85.9272 149.746 86.6104 149.746 87.5167V93.3728H147.487V82.9155H149.746V84.1703C150.415 83.1525 151.412 82.6436 152.736 82.6436C154.075 82.6436 155.065 83.1943 155.706 84.2958C156.403 83.1943 157.47 82.6436 158.906 82.6436Z" fill="white"/>
<path d="M171.195 82.6436C172.632 82.6436 173.859 83.1804 174.876 84.254C175.894 85.3137 176.403 86.6104 176.403 88.1441C176.403 89.6918 175.894 90.9955 174.876 92.0551C173.859 93.1148 172.632 93.6446 171.195 93.6446C169.606 93.6446 168.386 93.059 167.535 91.8878V97.5557H165.277V82.9155H167.535V84.4213C168.386 83.2362 169.606 82.6436 171.195 82.6436ZM168.476 90.5493C169.104 91.1767 169.892 91.4904 170.84 91.4904C171.788 91.4904 172.576 91.1767 173.203 90.5493C173.831 89.9079 174.144 89.1062 174.144 88.1441C174.144 87.182 173.831 86.3873 173.203 85.7598C172.576 85.1185 171.788 84.7978 170.84 84.7978C169.892 84.7978 169.104 85.1185 168.476 85.7598C167.849 86.3873 167.535 87.182 167.535 88.1441C167.535 89.1062 167.849 89.9079 168.476 90.5493Z" fill="white"/>
<path d="M185.499 82.9155H187.757V93.3728H185.499V92.0342C184.815 93.1078 183.735 93.6446 182.257 93.6446C181.058 93.6446 180.089 93.2612 179.35 92.4943C178.611 91.7275 178.241 90.6748 178.241 89.3362V82.9155H180.5V89.1062C180.5 89.887 180.709 90.4865 181.127 90.9048C181.546 91.3231 182.117 91.5323 182.842 91.5323C183.637 91.5323 184.278 91.2883 184.766 90.8003C185.255 90.2983 185.499 89.5384 185.499 88.5206V82.9155Z" fill="white"/>
<path d="M190.399 93.3728V78.1051H192.657V93.3728H190.399Z" fill="white"/>
<path d="M197.247 85.8017C197.247 86.1503 197.436 86.4291 197.812 86.6383C198.203 86.8335 198.67 87.0077 199.213 87.1611C199.771 87.3006 200.329 87.4679 200.887 87.6631C201.444 87.8583 201.911 88.1929 202.288 88.667C202.678 89.1271 202.873 89.7127 202.873 90.4238C202.873 91.4277 202.483 92.2155 201.702 92.7871C200.935 93.3588 199.966 93.6446 198.795 93.6446C197.763 93.6446 196.878 93.4285 196.139 92.9963C195.4 92.5641 194.863 91.9645 194.529 91.1976L196.474 90.0683C196.836 91.0722 197.61 91.5741 198.795 91.5741C199.98 91.5741 200.573 91.1837 200.573 90.4029C200.573 90.0683 200.378 89.7964 199.987 89.5872C199.611 89.3781 199.144 89.2038 198.586 89.0644C198.042 88.911 197.491 88.7367 196.934 88.5415C196.376 88.3463 195.902 88.0256 195.512 87.5794C195.135 87.1193 194.947 86.5407 194.947 85.8435C194.947 84.8814 195.309 84.1076 196.034 83.522C196.773 82.9364 197.687 82.6436 198.774 82.6436C199.639 82.6436 200.406 82.8388 201.075 83.2292C201.758 83.6056 202.281 84.1355 202.643 84.8187L200.74 85.8853C200.378 85.0906 199.722 84.6932 198.774 84.6932C198.342 84.6932 197.979 84.7908 197.687 84.986C197.394 85.1673 197.247 85.4392 197.247 85.8017Z" fill="white"/>
<path d="M206.87 80.9286C206.591 81.2074 206.256 81.3469 205.866 81.3469C205.475 81.3469 205.134 81.2074 204.841 80.9286C204.562 80.6358 204.423 80.2942 204.423 79.9038C204.423 79.5134 204.562 79.1787 204.841 78.8999C205.12 78.6071 205.462 78.4607 205.866 78.4607C206.27 78.4607 206.612 78.6071 206.891 78.8999C207.17 79.1787 207.309 79.5134 207.309 79.9038C207.309 80.2942 207.163 80.6358 206.87 80.9286ZM204.736 93.3728V82.9155H206.995V93.3728H204.736Z" fill="white"/>
<path d="M214.554 93.6446C213.02 93.6446 211.716 93.1148 210.643 92.0551C209.569 90.9955 209.032 89.6918 209.032 88.1441C209.032 86.5964 209.569 85.2928 210.643 84.2331C211.716 83.1734 213.02 82.6436 214.554 82.6436C216.101 82.6436 217.405 83.1734 218.465 84.2331C219.538 85.2928 220.075 86.5964 220.075 88.1441C220.075 89.6918 219.538 90.9955 218.465 92.0551C217.405 93.1148 216.101 93.6446 214.554 93.6446ZM212.232 90.5075C212.86 91.1349 213.634 91.4486 214.554 91.4486C215.474 91.4486 216.248 91.1349 216.875 90.5075C217.503 89.88 217.816 89.0922 217.816 88.1441C217.816 87.196 217.503 86.4082 216.875 85.7808C216.248 85.1533 215.474 84.8396 214.554 84.8396C213.634 84.8396 212.86 85.1533 212.232 85.7808C211.605 86.4082 211.291 87.196 211.291 88.1441C211.291 89.0922 211.605 89.88 212.232 90.5075Z" fill="white"/>
<path d="M227.618 82.6436C228.817 82.6436 229.786 83.027 230.525 83.7939C231.264 84.5607 231.634 85.6134 231.634 86.952V93.3728H229.375V87.182C229.375 86.4012 229.166 85.8017 228.748 85.3834C228.329 84.9651 227.758 84.7559 227.033 84.7559C226.238 84.7559 225.596 85.0069 225.108 85.5089C224.62 85.9969 224.376 86.7498 224.376 87.7676V93.3728H222.118V82.9155H224.376V84.254C225.06 83.1804 226.14 82.6436 227.618 82.6436Z" fill="white"/>
<path d="M242.348 82.9155H244.607V93.3728H242.348V91.8669C241.498 93.0521 240.278 93.6446 238.688 93.6446C237.252 93.6446 236.025 93.1148 235.007 92.0551C233.989 90.9815 233.48 89.6778 233.48 88.1441C233.48 86.5964 233.989 85.2928 235.007 84.2331C236.025 83.1734 237.252 82.6436 238.688 82.6436C240.278 82.6436 241.498 83.2292 242.348 84.4004V82.9155ZM236.68 90.5493C237.308 91.1767 238.095 91.4904 239.044 91.4904C239.992 91.4904 240.78 91.1767 241.407 90.5493C242.034 89.9079 242.348 89.1062 242.348 88.1441C242.348 87.182 242.034 86.3873 241.407 85.7598C240.78 85.1185 239.992 84.7978 239.044 84.7978C238.095 84.7978 237.308 85.1185 236.68 85.7598C236.053 86.3873 235.739 87.182 235.739 88.1441C235.739 89.1062 236.053 89.9079 236.68 90.5493Z" fill="white"/>
<path d="M252.74 82.6436C253.939 82.6436 254.908 83.027 255.647 83.7939C256.386 84.5607 256.756 85.6134 256.756 86.952V93.3728H254.497V87.182C254.497 86.4012 254.288 85.8017 253.87 85.3834C253.451 84.9651 252.88 84.7559 252.155 84.7559C251.36 84.7559 250.718 85.0069 250.23 85.5089C249.742 85.9969 249.498 86.7498 249.498 87.7676V93.3728H247.24V82.9155H249.498V84.254C250.182 83.1804 251.262 82.6436 252.74 82.6436Z" fill="white"/>
<path d="M267.47 78.7325H269.729V93.3728H267.47V91.8669C266.62 93.0521 265.4 93.6446 263.81 93.6446C262.374 93.6446 261.147 93.1148 260.129 92.0551C259.111 90.9815 258.602 89.6778 258.602 88.1441C258.602 86.5964 259.111 85.2928 260.129 84.2331C261.147 83.1734 262.374 82.6436 263.81 82.6436C265.4 82.6436 266.62 83.2292 267.47 84.4004V78.7325ZM261.802 90.5493C262.43 91.1767 263.217 91.4904 264.166 91.4904C265.114 91.4904 265.902 91.1767 266.529 90.5493C267.156 89.9079 267.47 89.1062 267.47 88.1441C267.47 87.182 267.156 86.3873 266.529 85.7598C265.902 85.1185 265.114 84.7978 264.166 84.7978C263.217 84.7978 262.43 85.1185 261.802 85.7598C261.175 86.3873 260.861 87.182 260.861 88.1441C260.861 89.1062 261.175 89.9079 261.802 90.5493Z" fill="white"/>
<path d="M277.298 93.6446C275.764 93.6446 274.46 93.1148 273.386 92.0551C272.313 90.9955 271.776 89.6918 271.776 88.1441C271.776 86.5964 272.313 85.2928 273.386 84.2331C274.46 83.1734 275.764 82.6436 277.298 82.6436C278.845 82.6436 280.149 83.1734 281.209 84.2331C282.282 85.2928 282.819 86.5964 282.819 88.1441C282.819 89.6918 282.282 90.9955 281.209 92.0551C280.149 93.1148 278.845 93.6446 277.298 93.6446ZM274.976 90.5075C275.603 91.1349 276.377 91.4486 277.298 91.4486C278.218 91.4486 278.992 91.1349 279.619 90.5075C280.246 89.88 280.56 89.0922 280.56 88.1441C280.56 87.196 280.246 86.4082 279.619 85.7808C278.992 85.1533 278.218 84.8396 277.298 84.8396C276.377 84.8396 275.603 85.1533 274.976 85.7808C274.349 86.4082 274.035 87.196 274.035 88.1441C274.035 89.0922 274.349 89.88 274.976 90.5075Z" fill="white"/>
<path d="M299.021 78.7325H301.426V93.3728H299.543L292.642 83.4383V93.3728H290.236V78.7325H292.119L299.021 88.667V78.7325Z" fill="white"/>
<path d="M305.981 89.1062C306.148 89.9009 306.532 90.5144 307.131 90.9467C307.731 91.365 308.463 91.5741 309.327 91.5741C310.526 91.5741 311.426 91.1419 312.025 90.2774L313.887 91.365C312.855 92.8847 311.328 93.6446 309.306 93.6446C307.605 93.6446 306.232 93.1287 305.186 92.097C304.141 91.0512 303.618 89.7336 303.618 88.1441C303.618 86.5825 304.134 85.2788 305.165 84.2331C306.197 83.1734 307.522 82.6436 309.139 82.6436C310.673 82.6436 311.928 83.1804 312.904 84.254C313.894 85.3276 314.389 86.6313 314.389 88.165C314.389 88.4021 314.361 88.7158 314.305 89.1062H305.981ZM305.96 87.2657H312.109C311.956 86.4152 311.6 85.7738 311.042 85.3416C310.499 84.9093 309.857 84.6932 309.118 84.6932C308.282 84.6932 307.584 84.9233 307.027 85.3834C306.469 85.8435 306.113 86.4709 305.96 87.2657Z" fill="white"/>
<path d="M324.639 82.9155H326.856V92.8917C326.856 94.4812 326.333 95.7012 325.287 96.5518C324.242 97.4023 322.973 97.8276 321.481 97.8276C319.069 97.8276 317.416 96.984 316.524 95.2969L318.469 94.1675C319.013 95.2411 320.031 95.7779 321.523 95.7779C322.499 95.7779 323.259 95.52 323.802 95.0041C324.36 94.5021 324.639 93.798 324.639 92.8917V91.6159C323.788 92.829 322.575 93.4355 321 93.4355C319.522 93.4355 318.274 92.9126 317.256 91.8669C316.238 90.8072 315.729 89.5314 315.729 88.0395C315.729 86.5476 316.238 85.2788 317.256 84.2331C318.274 83.1734 319.522 82.6436 321 82.6436C322.575 82.6436 323.788 83.2501 324.639 84.4631V82.9155ZM318.929 90.382C319.571 91.0094 320.365 91.3231 321.314 91.3231C322.262 91.3231 323.049 91.0094 323.677 90.382C324.318 89.7545 324.639 88.9737 324.639 88.0395C324.639 87.1054 324.318 86.3245 323.677 85.6971C323.049 85.0697 322.262 84.7559 321.314 84.7559C320.365 84.7559 319.571 85.0697 318.929 85.6971C318.302 86.3245 317.988 87.1054 317.988 88.0395C317.988 88.9737 318.302 89.7545 318.929 90.382Z" fill="white"/>
<path d="M332.961 81.4514H335.136L337.353 78.628H334.634L332.961 81.4514ZM334.425 93.6446C332.891 93.6446 331.587 93.1148 330.514 92.0551C329.44 90.9955 328.903 89.6918 328.903 88.1441C328.903 86.5964 329.44 85.2928 330.514 84.2331C331.587 83.1734 332.891 82.6436 334.425 82.6436C335.972 82.6436 337.276 83.1734 338.336 84.2331C339.409 85.2928 339.946 86.5964 339.946 88.1441C339.946 89.6918 339.409 90.9955 338.336 92.0551C337.276 93.1148 335.972 93.6446 334.425 93.6446ZM332.103 90.5075C332.73 91.1349 333.504 91.4486 334.425 91.4486C335.345 91.4486 336.119 91.1349 336.746 90.5075C337.373 89.88 337.687 89.0922 337.687 88.1441C337.687 87.196 337.373 86.4082 336.746 85.7808C336.119 85.1533 335.345 84.8396 334.425 84.8396C333.504 84.8396 332.73 85.1533 332.103 85.7808C331.476 86.4082 331.162 87.196 331.162 88.1441C331.162 89.0922 331.476 89.88 332.103 90.5075Z" fill="white"/>
<path d="M346.924 93.6446C345.349 93.6446 344.031 93.1148 342.971 92.0551C341.926 90.9955 341.403 89.6918 341.403 88.1441C341.403 86.5825 341.926 85.2788 342.971 84.2331C344.031 83.1734 345.349 82.6436 346.924 82.6436C347.942 82.6436 348.869 82.8876 349.706 83.3756C350.543 83.8636 351.17 84.5189 351.588 85.3416L349.643 86.4709C349.406 85.969 349.044 85.5786 348.556 85.2997C348.082 85.0069 347.531 84.8605 346.903 84.8605C345.983 84.8605 345.209 85.1742 344.582 85.8017C343.968 86.4291 343.662 87.2099 343.662 88.1441C343.662 89.0783 343.968 89.8591 344.582 90.4865C345.209 91.114 345.983 91.4277 346.903 91.4277C347.517 91.4277 348.068 91.2813 348.556 90.9885C349.058 90.6957 349.434 90.3053 349.685 89.8173L351.63 90.9258C351.184 91.7623 350.543 92.4246 349.706 92.9126C348.869 93.4006 347.942 93.6446 346.924 93.6446Z" fill="white"/>
<path d="M355.396 80.9286C355.117 81.2074 354.783 81.3469 354.392 81.3469C354.002 81.3469 353.66 81.2074 353.367 80.9286C353.088 80.6358 352.949 80.2942 352.949 79.9038C352.949 79.5134 353.088 79.1787 353.367 78.8999C353.646 78.6071 353.988 78.4607 354.392 78.4607C354.796 78.4607 355.138 78.6071 355.417 78.8999C355.696 79.1787 355.835 79.5134 355.835 79.9038C355.835 80.2942 355.689 80.6358 355.396 80.9286ZM353.263 93.3728V82.9155H355.521V93.3728H353.263Z" fill="white"/>
<path d="M363.08 93.6446C361.546 93.6446 360.243 93.1148 359.169 92.0551C358.095 90.9955 357.559 89.6918 357.559 88.1441C357.559 86.5964 358.095 85.2928 359.169 84.2331C360.243 83.1734 361.546 82.6436 363.08 82.6436C364.628 82.6436 365.931 83.1734 366.991 84.2331C368.065 85.2928 368.601 86.5964 368.601 88.1441C368.601 89.6918 368.065 90.9955 366.991 92.0551C365.931 93.1148 364.628 93.6446 363.08 93.6446ZM360.758 90.5075C361.386 91.1349 362.16 91.4486 363.08 91.4486C364 91.4486 364.774 91.1349 365.401 90.5075C366.029 89.88 366.343 89.0922 366.343 88.1441C366.343 87.196 366.029 86.4082 365.401 85.7808C364.774 85.1533 364 84.8396 363.08 84.8396C362.16 84.8396 361.386 85.1533 360.758 85.7808C360.131 86.4082 359.817 87.196 359.817 88.1441C359.817 89.0922 360.131 89.88 360.758 90.5075Z" fill="white"/>
<path d="M372.468 85.8017C372.468 86.1503 372.657 86.4291 373.033 86.6383C373.423 86.8335 373.891 87.0077 374.434 87.1611C374.992 87.3006 375.55 87.4679 376.107 87.6631C376.665 87.8583 377.132 88.1929 377.509 88.667C377.899 89.1271 378.094 89.7127 378.094 90.4238C378.094 91.4277 377.704 92.2155 376.923 92.7871C376.156 93.3588 375.187 93.6446 374.016 93.6446C372.984 93.6446 372.099 93.4285 371.36 92.9963C370.621 92.5641 370.084 91.9645 369.749 91.1976L371.694 90.0683C372.057 91.0722 372.831 91.5741 374.016 91.5741C375.201 91.5741 375.794 91.1837 375.794 90.4029C375.794 90.0683 375.599 89.7964 375.208 89.5872C374.832 89.3781 374.365 89.2038 373.807 89.0644C373.263 88.911 372.712 88.7367 372.155 88.5415C371.597 88.3463 371.123 88.0256 370.732 87.5794C370.356 87.1193 370.168 86.5407 370.168 85.8435C370.168 84.8814 370.53 84.1076 371.255 83.522C371.994 82.9364 372.908 82.6436 373.995 82.6436C374.86 82.6436 375.626 82.8388 376.296 83.2292C376.979 83.6056 377.502 84.1355 377.864 84.8187L375.961 85.8853C375.599 85.0906 374.943 84.6932 373.995 84.6932C373.563 84.6932 373.2 84.7908 372.908 84.986C372.615 85.1673 372.468 85.4392 372.468 85.8017Z" fill="white"/>
<path d="M382.344 93.1636C382.037 93.4704 381.667 93.6237 381.235 93.6237C380.803 93.6237 380.433 93.4704 380.127 93.1636C379.82 92.8569 379.667 92.4874 379.667 92.0551C379.667 91.6229 379.813 91.2534 380.106 90.9467C380.413 90.6399 380.789 90.4865 381.235 90.4865C381.667 90.4865 382.037 90.6399 382.344 90.9467C382.65 91.2534 382.804 91.6229 382.804 92.0551C382.804 92.4874 382.65 92.8569 382.344 93.1636Z" fill="white"/>
</g>
<g opacity="0.08">
<mask id="path-2-outside-1" maskUnits="userSpaceOnUse" x="0" y="30.936" width="507" height="90" fill="black">
<rect fill="white" y="30.936" width="507" height="90"/>
<path d="M13.8636 33.1631C17.7568 33.1631 20.9693 34.5538 23.5012 37.3352C26.0603 40.0894 27.3399 43.4707 27.3399 47.4792C27.3399 51.4877 26.0603 54.8827 23.5012 57.6641C20.9693 60.4182 17.7568 61.7953 13.8636 61.7953H3.12352V33.1631H13.8636ZM13.8636 59.7502C17.1851 59.7502 19.9075 58.5776 22.031 56.2325C24.1546 53.8601 25.2163 50.9424 25.2163 47.4792C25.2163 44.0161 24.1546 41.112 22.031 38.7669C19.9075 36.3945 17.1851 35.2083 13.8636 35.2083H5.28788V59.7502H13.8636Z"/>
<path d="M41.5741 40.8938C44.5688 40.8938 46.9918 41.9573 48.8431 44.0843C50.7216 46.2112 51.6608 48.7336 51.6608 51.6513C51.6608 51.7604 51.6472 51.924 51.62 52.1422C51.62 52.3603 51.62 52.5239 51.62 52.633H33.1208C33.3659 54.9236 34.2779 56.7779 35.8569 58.1958C37.4632 59.5865 39.437 60.2819 41.7783 60.2819C43.4118 60.2819 44.841 59.941 46.0662 59.2593C47.2913 58.5776 48.2169 57.6777 48.8431 56.5597L50.6399 57.6232C49.7959 59.0412 48.5981 60.1728 47.0462 61.0182C45.4944 61.8362 43.7248 62.2452 41.7374 62.2452C38.6066 62.2452 36.0339 61.2499 34.0193 59.2593C32.0046 57.2414 30.9973 54.6782 30.9973 51.5695C30.9973 48.5154 31.9774 45.9794 33.9376 43.9616C35.925 41.9164 38.4705 40.8938 41.5741 40.8938ZM41.5741 42.8572C39.26 42.8572 37.327 43.5798 35.7752 45.025C34.2234 46.4703 33.3386 48.3382 33.1208 50.6288H49.5373C49.3195 48.2018 48.4483 46.3067 46.9237 44.9432C45.4264 43.5525 43.6432 42.8572 41.5741 42.8572Z"/>
<path d="M65.785 62.2452C62.7086 62.2452 60.1495 61.2227 58.1076 59.1775C56.0658 57.1324 55.0449 54.5964 55.0449 51.5695C55.0449 48.5427 56.0658 46.0067 58.1076 43.9616C60.1495 41.9164 62.7086 40.8938 65.785 40.8938C67.7724 40.8938 69.5692 41.371 71.1755 42.3254C72.7817 43.2526 73.9524 44.5206 74.6875 46.1294L73.0131 47.1111C72.4142 45.8022 71.4613 44.766 70.1545 44.0025C68.875 43.2389 67.4185 42.8572 65.785 42.8572C63.3348 42.8572 61.2793 43.7025 59.6186 45.3932C57.9579 47.0566 57.1276 49.1153 57.1276 51.5695C57.1276 54.0237 57.9579 56.0961 59.6186 57.7868C61.2793 59.4502 63.3348 60.2819 65.785 60.2819C67.4185 60.2819 68.875 59.9001 70.1545 59.1366C71.4613 58.3731 72.455 57.3369 73.1357 56.028L74.8508 57.0505C74.0341 58.6321 72.809 59.9001 71.1755 60.8545C69.5692 61.7817 67.7724 62.2452 65.785 62.2452Z"/>
<path d="M88.4766 62.2452C85.4819 62.2452 82.9364 61.2227 80.8401 59.1775C78.771 57.1051 77.7365 54.5691 77.7365 51.5695C77.7365 48.57 78.771 46.0476 80.8401 44.0025C82.9364 41.93 85.4819 40.8938 88.4766 40.8938C91.4441 40.8938 93.9624 41.93 96.0315 44.0025C98.1278 46.0476 99.1759 48.57 99.1759 51.5695C99.1759 54.5691 98.1278 57.1051 96.0315 59.1775C93.9624 61.2227 91.4441 62.2452 88.4766 62.2452ZM82.3103 57.7459C83.9982 59.4366 86.0536 60.2819 88.4766 60.2819C90.8996 60.2819 92.9415 59.4366 94.6022 57.7459C96.2629 56.0552 97.0932 53.9964 97.0932 51.5695C97.0932 49.1426 96.2629 47.0838 94.6022 45.3932C92.9415 43.7025 90.8996 42.8572 88.4766 42.8572C86.0536 42.8572 83.9982 43.7025 82.3103 45.3932C80.6496 47.0838 79.8192 49.1426 79.8192 51.5695C79.8192 53.9964 80.6496 56.0552 82.3103 57.7459Z"/>
<path d="M104.09 61.7953V31.936H106.132V61.7953H104.09Z"/>
<path d="M130.393 41.3438H132.476V61.7953H130.393V57.1733C129.522 58.7548 128.324 59.9956 126.799 60.8954C125.275 61.7953 123.546 62.2452 121.613 62.2452C118.7 62.2452 116.209 61.2227 114.14 59.1775C112.071 57.1051 111.036 54.5691 111.036 51.5695C111.036 48.57 112.071 46.0476 114.14 44.0025C116.209 41.93 118.7 40.8938 121.613 40.8938C123.546 40.8938 125.275 41.3438 126.799 42.2436C128.324 43.1435 129.522 44.3842 130.393 45.9658V41.3438ZM115.61 57.7459C117.298 59.4366 119.353 60.2819 121.776 60.2819C124.199 60.2819 126.241 59.4366 127.902 57.7459C129.563 56.0552 130.393 53.9964 130.393 51.5695C130.393 49.1426 129.563 47.0838 127.902 45.3932C126.241 43.7025 124.199 42.8572 121.776 42.8572C119.353 42.8572 117.298 43.7025 115.61 45.3932C113.949 47.0838 113.119 49.1426 113.119 51.5695C113.119 53.9964 113.949 56.0552 115.61 57.7459Z"/>
<path d="M148.097 40.8938C150.52 40.8938 152.439 41.6437 153.855 43.1435C155.298 44.616 156.019 46.593 156.019 49.0744V61.7953H153.937V49.0744C153.937 47.1656 153.406 45.6522 152.344 44.5342C151.31 43.4162 149.839 42.8572 147.934 42.8572C145.837 42.8572 144.122 43.5525 142.788 44.9432C141.454 46.3339 140.787 48.3518 140.787 50.9969V61.7953H138.745V41.3438H140.787V45.2295C142.257 42.3391 144.694 40.8938 148.097 40.8938Z"/>
<path d="M179.805 33.1631H181.847V61.7953H179.805V57.0505C178.961 58.6594 177.763 59.9274 176.211 60.8545C174.687 61.7817 172.958 62.2452 171.025 62.2452C168.085 62.2452 165.58 61.2227 163.511 59.1775C161.469 57.1051 160.448 54.5691 160.448 51.5695C160.448 48.57 161.469 46.0476 163.511 44.0025C165.58 41.93 168.085 40.8938 171.025 40.8938C172.958 40.8938 174.687 41.3574 176.211 42.2845C177.763 43.2117 178.961 44.4797 179.805 46.0885V33.1631ZM164.981 57.7459C166.669 59.4366 168.725 60.2819 171.148 60.2819C173.571 60.2819 175.612 59.4366 177.273 57.7459C178.961 56.0552 179.805 53.9964 179.805 51.5695C179.805 49.1426 178.961 47.0838 177.273 45.3932C175.612 43.7025 173.571 42.8572 171.148 42.8572C168.725 42.8572 166.669 43.7025 164.981 45.3932C163.321 47.0838 162.49 49.1426 162.49 51.5695C162.49 53.9964 163.321 56.0552 164.981 57.7459Z"/>
<path d="M197.468 62.2452C194.474 62.2452 191.928 61.2227 189.832 59.1775C187.763 57.1051 186.728 54.5691 186.728 51.5695C186.728 48.57 187.763 46.0476 189.832 44.0025C191.928 41.93 194.474 40.8938 197.468 40.8938C200.436 40.8938 202.954 41.93 205.023 44.0025C207.119 46.0476 208.168 48.57 208.168 51.5695C208.168 54.5691 207.119 57.1051 205.023 59.1775C202.954 61.2227 200.436 62.2452 197.468 62.2452ZM191.302 57.7459C192.99 59.4366 195.045 60.2819 197.468 60.2819C199.891 60.2819 201.933 59.4366 203.594 57.7459C205.255 56.0552 206.085 53.9964 206.085 51.5695C206.085 49.1426 205.255 47.0838 203.594 45.3932C201.933 43.7025 199.891 42.8572 197.468 42.8572C195.045 42.8572 192.99 43.7025 191.302 45.3932C189.641 47.0838 188.811 49.1426 188.811 51.5695C188.811 53.9964 189.641 56.0552 191.302 57.7459Z"/>
<path d="M224.377 33.1631H226.541V61.7953H224.377V33.1631Z"/>
<path d="M251.23 33.1631H253.272V61.7953H251.23V57.0505C250.386 58.6594 249.188 59.9274 247.636 60.8545C246.112 61.7817 244.383 62.2452 242.45 62.2452C239.51 62.2452 237.005 61.2227 234.936 59.1775C232.894 57.1051 231.873 54.5691 231.873 51.5695C231.873 48.57 232.894 46.0476 234.936 44.0025C237.005 41.93 239.51 40.8938 242.45 40.8938C244.383 40.8938 246.112 41.3574 247.636 42.2845C249.188 43.2117 250.386 44.4797 251.23 46.0885V33.1631ZM236.406 57.7459C238.094 59.4366 240.149 60.2819 242.572 60.2819C244.995 60.2819 247.037 59.4366 248.698 57.7459C250.386 56.0552 251.23 53.9964 251.23 51.5695C251.23 49.1426 250.386 47.0838 248.698 45.3932C247.037 43.7025 244.995 42.8572 242.572 42.8572C240.149 42.8572 238.094 43.7025 236.406 45.3932C234.745 47.0838 233.915 49.1426 233.915 51.5695C233.915 53.9964 234.745 56.0552 236.406 57.7459Z"/>
<path d="M268.73 40.8938C271.725 40.8938 274.148 41.9573 275.999 44.0843C277.877 46.2112 278.817 48.7336 278.817 51.6513C278.817 51.7604 278.803 51.924 278.776 52.1422C278.776 52.3603 278.776 52.5239 278.776 52.633H260.277C260.522 54.9236 261.434 56.7779 263.013 58.1958C264.619 59.5865 266.593 60.2819 268.934 60.2819C270.567 60.2819 271.997 59.941 273.222 59.2593C274.447 58.5776 275.373 57.6777 275.999 56.5597L277.796 57.6232C276.952 59.0412 275.754 60.1728 274.202 61.0182C272.65 61.8362 270.881 62.2452 268.893 62.2452C265.762 62.2452 263.19 61.2499 261.175 59.2593C259.16 57.2414 258.153 54.6782 258.153 51.5695C258.153 48.5154 259.133 45.9794 261.093 43.9616C263.081 41.9164 265.626 40.8938 268.73 40.8938ZM268.73 42.8572C266.416 42.8572 264.483 43.5798 262.931 45.025C261.379 46.4703 260.494 48.3382 260.277 50.6288H276.693C276.475 48.2018 275.604 46.3067 274.079 44.9432C272.582 43.5525 270.799 42.8572 268.73 42.8572Z"/>
<path d="M285.753 35.9445C285.427 36.2445 285.046 36.3945 284.61 36.3945C284.174 36.3945 283.793 36.2445 283.467 35.9445C283.14 35.6173 282.977 35.2219 282.977 34.7584C282.977 34.322 283.14 33.9539 283.467 33.654C283.793 33.3267 284.174 33.1631 284.61 33.1631C285.046 33.1631 285.427 33.3267 285.753 33.654C286.08 33.9539 286.243 34.322 286.243 34.7584C286.243 35.2219 286.08 35.6173 285.753 35.9445ZM283.589 61.7953V41.3438H285.631V61.7953H283.589Z"/>
<path d="M309.892 41.3438H311.975V61.7953H309.892V57.1733C309.021 58.7548 307.823 59.9956 306.299 60.8954C304.774 61.7953 303.045 62.2452 301.112 62.2452C298.199 62.2452 295.708 61.2227 293.639 59.1775C291.57 57.1051 290.535 54.5691 290.535 51.5695C290.535 48.57 291.57 46.0476 293.639 44.0025C295.708 41.93 298.199 40.8938 301.112 40.8938C303.045 40.8938 304.774 41.3438 306.299 42.2436C307.823 43.1435 309.021 44.3842 309.892 45.9658V41.3438ZM295.109 57.7459C296.797 59.4366 298.853 60.2819 301.276 60.2819C303.699 60.2819 305.74 59.4366 307.401 57.7459C309.062 56.0552 309.892 53.9964 309.892 51.5695C309.892 49.1426 309.062 47.0838 307.401 45.3932C305.74 43.7025 303.699 42.8572 301.276 42.8572C298.853 42.8572 296.797 43.7025 295.109 45.3932C293.449 47.0838 292.618 49.1426 292.618 51.5695C292.618 53.9964 293.449 56.0552 295.109 57.7459Z"/>
<path d="M319.633 46.7021C319.633 47.711 320.055 48.5018 320.899 49.0744C321.743 49.6471 322.778 50.0834 324.003 50.3833C325.228 50.656 326.439 50.9696 327.637 51.3241C328.862 51.6786 329.897 52.2785 330.741 53.1238C331.585 53.9419 332.007 55.0463 332.007 56.437C332.007 58.1277 331.326 59.5184 329.965 60.6091C328.631 61.6999 326.875 62.2452 324.697 62.2452C322.737 62.2452 321.076 61.8362 319.715 61.0182C318.381 60.1728 317.455 59.0684 316.938 57.705L318.694 56.6824C319.075 57.8004 319.783 58.6867 320.817 59.3411C321.879 59.9683 323.172 60.2819 324.697 60.2819C326.221 60.2819 327.474 59.9547 328.454 59.3002C329.461 58.6185 329.965 57.6641 329.965 56.437C329.965 55.4281 329.543 54.6236 328.699 54.0237C327.855 53.4238 326.82 52.9875 325.595 52.7148C324.37 52.4149 323.145 52.0876 321.92 51.7331C320.722 51.3787 319.701 50.7924 318.857 49.9743C318.013 49.1562 317.591 48.0655 317.591 46.7021C317.591 45.0659 318.231 43.6889 319.511 42.5708C320.817 41.4528 322.492 40.8938 324.534 40.8938C326.167 40.8938 327.583 41.2619 328.781 41.9982C330.006 42.7345 330.904 43.7298 331.476 44.9841L329.761 45.9658C329.352 44.9569 328.672 44.1933 327.719 43.6752C326.766 43.1299 325.704 42.8572 324.534 42.8572C323.145 42.8572 321.974 43.2117 321.022 43.9206C320.096 44.6024 319.633 45.5295 319.633 46.7021Z"/>
<path d="M5.61458 102.024C5.94127 103.578 6.68995 104.778 7.86061 105.623C9.03127 106.441 10.4606 106.85 12.1485 106.85C14.4898 106.85 16.2458 106.005 17.4165 104.314L21.051 106.441C19.0363 109.413 16.0552 110.899 12.1077 110.899C8.78625 110.899 6.10462 109.891 4.06277 107.873C2.02092 105.828 1 103.251 1 100.142C1 97.0879 2.00731 94.5383 4.02194 92.4931C6.03656 90.4207 8.6229 89.3845 11.781 89.3845C14.7757 89.3845 17.2259 90.4343 19.1316 92.534C21.0646 94.6337 22.031 97.1833 22.031 100.183C22.031 100.646 21.9766 101.26 21.8677 102.024H5.61458ZM5.57374 98.424H17.5798C17.2803 96.7607 16.5861 95.5063 15.4971 94.661C14.4354 93.8156 13.183 93.393 11.7401 93.393C10.1066 93.393 8.74541 93.8429 7.65643 94.7428C6.56744 95.6426 5.87321 96.8697 5.57374 98.424Z"/>
<path d="M36.4069 81.7356H41.1032V110.368H36.4069V81.7356Z"/>
<path d="M68.8267 89.3845C71.1408 89.3845 73.0057 90.1343 74.4214 91.6341C75.8371 93.1339 76.5449 95.1518 76.5449 97.6878V110.368H72.1345V97.9741C72.1345 96.5561 71.7806 95.4654 71.0727 94.7019C70.3649 93.9111 69.3984 93.5157 68.1733 93.5157C66.8121 93.5157 65.7231 93.9656 64.9064 94.8655C64.1168 95.7653 63.7221 97.1152 63.7221 98.9149V110.368H59.3117V97.9741C59.3117 96.5561 58.9714 95.4654 58.2908 94.7019C57.6374 93.9111 56.6981 93.5157 55.473 93.5157C54.139 93.5157 53.05 93.9792 52.2061 94.9064C51.3621 95.8063 50.9401 97.1424 50.9401 98.9149V110.368H46.5297V89.9162H50.9401V92.3704C52.2469 90.3798 54.1935 89.3845 56.7798 89.3845C59.3934 89.3845 61.3263 90.4616 62.5787 92.6158C63.9399 90.4616 66.0226 89.3845 68.8267 89.3845Z"/>
<path d="M92.822 89.3845C95.6261 89.3845 98.0219 90.4343 100.009 92.534C101.997 94.6064 102.99 97.1424 102.99 100.142C102.99 103.169 101.997 105.718 100.009 107.791C98.0219 109.863 95.6261 110.899 92.822 110.899C89.7183 110.899 87.3362 109.754 85.6755 107.464V118.548H81.2651V89.9162H85.6755V92.8612C87.3362 90.5434 89.7183 89.3845 92.822 89.3845ZM87.5131 104.846C88.7383 106.073 90.2764 106.686 92.1277 106.686C93.979 106.686 95.5172 106.073 96.7423 104.846C97.9674 103.591 98.58 102.024 98.58 100.142C98.58 98.2604 97.9674 96.7061 96.7423 95.479C95.5172 94.2247 93.979 93.5975 92.1277 93.5975C90.2764 93.5975 88.7383 94.2247 87.5131 95.479C86.288 96.7061 85.6755 98.2604 85.6755 100.142C85.6755 102.024 86.288 103.591 87.5131 104.846Z"/>
<path d="M120.75 89.9162H125.16V110.368H120.75V107.75C119.416 109.85 117.306 110.899 114.42 110.899C112.079 110.899 110.186 110.15 108.744 108.65C107.301 107.15 106.579 105.091 106.579 102.473V89.9162H110.99V102.024C110.99 103.551 111.398 104.723 112.215 105.541C113.031 106.359 114.148 106.768 115.563 106.768C117.115 106.768 118.368 106.291 119.32 105.337C120.273 104.355 120.75 102.869 120.75 100.878V89.9162Z"/>
<path d="M130.317 110.368V80.5085H134.728V110.368H130.317Z"/>
<path d="M143.69 95.5608C143.69 96.2426 144.058 96.7879 144.793 97.197C145.555 97.5787 146.467 97.9196 147.529 98.2195C148.618 98.4922 149.707 98.8194 150.796 99.2012C151.885 99.583 152.797 100.237 153.532 101.165C154.294 102.064 154.675 103.21 154.675 104.6C154.675 106.564 153.913 108.104 152.388 109.222C150.891 110.34 148.999 110.899 146.712 110.899C144.697 110.899 142.969 110.477 141.526 109.632C140.083 108.786 139.035 107.614 138.381 106.114L142.179 103.905C142.887 105.868 144.398 106.85 146.712 106.85C149.026 106.85 150.183 106.087 150.183 104.56C150.183 103.905 149.802 103.373 149.04 102.964C148.305 102.555 147.393 102.214 146.304 101.942C145.242 101.642 144.167 101.301 143.078 100.919C141.989 100.537 141.063 99.9102 140.301 99.0376C139.566 98.1377 139.198 97.0061 139.198 95.6426C139.198 93.7611 139.906 92.2477 141.322 91.1024C142.765 89.9571 144.548 89.3845 146.671 89.3845C148.359 89.3845 149.857 89.7662 151.163 90.5298C152.497 91.266 153.518 92.3022 154.226 93.6384L150.51 95.7244C149.802 94.1701 148.523 93.393 146.671 93.393C145.827 93.393 145.119 93.5838 144.548 93.9656C143.976 94.3201 143.69 94.8518 143.69 95.5608Z"/>
<path d="M162.478 86.0304C161.934 86.5758 161.28 86.8485 160.518 86.8485C159.756 86.8485 159.089 86.5758 158.517 86.0304C157.973 85.4578 157.7 84.7897 157.7 84.0261C157.7 83.2626 157.973 82.6082 158.517 82.0628C159.062 81.4902 159.729 81.2038 160.518 81.2038C161.308 81.2038 161.975 81.4902 162.519 82.0628C163.064 82.6082 163.336 83.2626 163.336 84.0261C163.336 84.7897 163.05 85.4578 162.478 86.0304ZM158.313 110.368V89.9162H162.723V110.368H158.313Z"/>
<path d="M177.482 110.899C174.487 110.899 171.942 109.863 169.845 107.791C167.749 105.718 166.701 103.169 166.701 100.142C166.701 97.1152 167.749 94.5655 169.845 92.4931C171.942 90.4207 174.487 89.3845 177.482 89.3845C180.504 89.3845 183.049 90.4207 185.118 92.4931C187.215 94.5655 188.263 97.1152 188.263 100.142C188.263 103.169 187.215 105.718 185.118 107.791C183.049 109.863 180.504 110.899 177.482 110.899ZM172.949 104.764C174.174 105.991 175.685 106.605 177.482 106.605C179.279 106.605 180.79 105.991 182.015 104.764C183.24 103.537 183.852 101.996 183.852 100.142C183.852 98.2877 183.24 96.747 182.015 95.5199C180.79 94.2928 179.279 93.6793 177.482 93.6793C175.685 93.6793 174.174 94.2928 172.949 95.5199C171.724 96.747 171.111 98.2877 171.111 100.142C171.111 101.996 171.724 103.537 172.949 104.764Z"/>
<path d="M202.991 89.3845C205.332 89.3845 207.224 90.1343 208.667 91.6341C210.11 93.1339 210.832 95.1927 210.832 97.8105V110.368H206.421V98.2604C206.421 96.7334 206.013 95.5608 205.196 94.7428C204.379 93.9247 203.263 93.5157 201.847 93.5157C200.296 93.5157 199.043 94.0065 198.09 94.9882C197.138 95.9426 196.661 97.4151 196.661 99.4057V110.368H192.251V89.9162H196.661V92.534C197.995 90.4343 200.105 89.3845 202.991 89.3845Z"/>
<path d="M231.752 89.9162H236.162V110.368H231.752V107.423C230.091 109.741 227.709 110.899 224.605 110.899C221.801 110.899 219.406 109.863 217.418 107.791C215.431 105.691 214.437 103.142 214.437 100.142C214.437 97.1152 215.431 94.5655 217.418 92.4931C219.406 90.4207 221.801 89.3845 224.605 89.3845C227.709 89.3845 230.091 90.5297 231.752 92.8203V89.9162ZM220.685 104.846C221.91 106.073 223.448 106.686 225.3 106.686C227.151 106.686 228.689 106.073 229.914 104.846C231.139 103.591 231.752 102.024 231.752 100.142C231.752 98.2604 231.139 96.7061 229.914 95.479C228.689 94.2247 227.151 93.5975 225.3 93.5975C223.448 93.5975 221.91 94.2247 220.685 95.479C219.46 96.7061 218.847 98.2604 218.847 100.142C218.847 102.024 219.46 103.591 220.685 104.846Z"/>
<path d="M252.043 89.3845C254.384 89.3845 256.277 90.1343 257.719 91.6341C259.162 93.1339 259.884 95.1927 259.884 97.8105V110.368H255.473V98.2604C255.473 96.7334 255.065 95.5608 254.248 94.7428C253.432 93.9247 252.315 93.5157 250.9 93.5157C249.348 93.5157 248.096 94.0065 247.143 94.9882C246.19 95.9426 245.713 97.4151 245.713 99.4057V110.368H241.303V89.9162H245.713V92.534C247.047 90.4343 249.157 89.3845 252.043 89.3845Z"/>
<path d="M280.804 81.7356H285.215V110.368H280.804V107.423C279.143 109.741 276.761 110.899 273.658 110.899C270.854 110.899 268.458 109.863 266.47 107.791C264.483 105.691 263.489 103.142 263.489 100.142C263.489 97.1152 264.483 94.5655 266.47 92.4931C268.458 90.4207 270.854 89.3845 273.658 89.3845C276.761 89.3845 279.143 90.5297 280.804 92.8203V81.7356ZM269.737 104.846C270.962 106.073 272.501 106.686 274.352 106.686C276.203 106.686 277.741 106.073 278.966 104.846C280.192 103.591 280.804 102.024 280.804 100.142C280.804 98.2604 280.192 96.7061 278.966 95.479C277.741 94.2247 276.203 93.5975 274.352 93.5975C272.501 93.5975 270.962 94.2247 269.737 95.479C268.512 96.7061 267.9 98.2604 267.9 100.142C267.9 102.024 268.512 103.591 269.737 104.846Z"/>
<path d="M299.993 110.899C296.998 110.899 294.453 109.863 292.356 107.791C290.26 105.718 289.212 103.169 289.212 100.142C289.212 97.1152 290.26 94.5655 292.356 92.4931C294.453 90.4207 296.998 89.3845 299.993 89.3845C303.015 89.3845 305.56 90.4207 307.629 92.4931C309.726 94.5655 310.774 97.1152 310.774 100.142C310.774 103.169 309.726 105.718 307.629 107.791C305.56 109.863 303.015 110.899 299.993 110.899ZM295.46 104.764C296.685 105.991 298.196 106.605 299.993 106.605C301.79 106.605 303.301 105.991 304.526 104.764C305.751 103.537 306.363 101.996 306.363 100.142C306.363 98.2877 305.751 96.747 304.526 95.5199C303.301 94.2928 301.79 93.6793 299.993 93.6793C298.196 93.6793 296.685 94.2928 295.46 95.5199C294.235 96.747 293.622 98.2877 293.622 100.142C293.622 101.996 294.235 103.537 295.46 104.764Z"/>
<path d="M342.408 81.7356H347.105V110.368H343.429L329.953 90.9388V110.368H325.257V81.7356H328.932L342.408 101.165V81.7356Z"/>
<path d="M355.999 102.024C356.326 103.578 357.074 104.778 358.245 105.623C359.416 106.441 360.845 106.85 362.533 106.85C364.874 106.85 366.63 106.005 367.801 104.314L371.435 106.441C369.421 109.413 366.44 110.899 362.492 110.899C359.171 110.899 356.489 109.891 354.447 107.873C352.405 105.828 351.384 103.251 351.384 100.142C351.384 97.0879 352.392 94.5383 354.406 92.4931C356.421 90.4207 359.007 89.3845 362.165 89.3845C365.16 89.3845 367.61 90.4343 369.516 92.534C371.449 94.6337 372.416 97.1833 372.416 100.183C372.416 100.646 372.361 101.26 372.252 102.024H355.999ZM355.958 98.424H367.964C367.665 96.7607 366.971 95.5063 365.882 94.661C364.82 93.8156 363.568 93.393 362.125 93.393C360.491 93.393 359.13 93.8429 358.041 94.7428C356.952 95.6426 356.258 96.8697 355.958 98.424Z"/>
<path d="M392.43 89.9162H396.759V109.427C396.759 112.536 395.738 114.922 393.696 116.585C391.654 118.248 389.176 119.08 386.263 119.08C381.554 119.08 378.327 117.43 376.585 114.131L380.383 111.922C381.445 114.022 383.432 115.072 386.345 115.072C388.251 115.072 389.735 114.567 390.796 113.558C391.885 112.577 392.43 111.199 392.43 109.427V106.932C390.769 109.304 388.401 110.49 385.324 110.49C382.438 110.49 380.002 109.468 378.014 107.423C376.027 105.35 375.033 102.855 375.033 99.9375C375.033 97.0197 376.027 94.5383 378.014 92.4931C380.002 90.4207 382.438 89.3845 385.324 89.3845C388.401 89.3845 390.769 90.5707 392.43 92.943V89.9162ZM381.281 104.519C382.534 105.746 384.085 106.359 385.937 106.359C387.788 106.359 389.326 105.746 390.551 104.519C391.804 103.292 392.43 101.764 392.43 99.9375C392.43 98.1105 391.804 96.5834 390.551 95.3563C389.326 94.1292 387.788 93.5157 385.937 93.5157C384.085 93.5157 382.534 94.1292 381.281 95.3563C380.056 96.5834 379.444 98.1105 379.444 99.9375C379.444 101.764 380.056 103.292 381.281 104.519Z"/>
<path d="M408.678 87.053H412.925L417.254 81.5311H411.945L408.678 87.053ZM411.537 110.899C408.542 110.899 405.997 109.863 403.9 107.791C401.804 105.718 400.756 103.169 400.756 100.142C400.756 97.1152 401.804 94.5655 403.9 92.4931C405.997 90.4207 408.542 89.3845 411.537 89.3845C414.559 89.3845 417.104 90.4207 419.173 92.4931C421.27 94.5655 422.318 97.1152 422.318 100.142C422.318 103.169 421.27 105.718 419.173 107.791C417.104 109.863 414.559 110.899 411.537 110.899ZM407.004 104.764C408.229 105.991 409.74 106.605 411.537 106.605C413.334 106.605 414.845 105.991 416.07 104.764C417.295 103.537 417.907 101.996 417.907 100.142C417.907 98.2877 417.295 96.747 416.07 95.5199C414.845 94.2928 413.334 93.6793 411.537 93.6793C409.74 93.6793 408.229 94.2928 407.004 95.5199C405.779 96.747 405.166 98.2877 405.166 100.142C405.166 101.996 405.779 103.537 407.004 104.764Z"/>
<path d="M435.943 110.899C432.867 110.899 430.294 109.863 428.225 107.791C426.183 105.718 425.162 103.169 425.162 100.142C425.162 97.0879 426.183 94.5383 428.225 92.4931C430.294 90.4207 432.867 89.3845 435.943 89.3845C437.931 89.3845 439.741 89.8617 441.375 90.8161C443.008 91.7705 444.233 93.0521 445.05 94.661L441.252 96.8697C440.789 95.8881 440.081 95.1245 439.128 94.5792C438.203 94.0065 437.127 93.7202 435.902 93.7202C434.106 93.7202 432.595 94.3337 431.369 95.5608C430.172 96.7879 429.573 98.315 429.573 100.142C429.573 101.969 430.172 103.496 431.369 104.723C432.595 105.95 434.106 106.564 435.902 106.564C437.1 106.564 438.176 106.277 439.128 105.705C440.109 105.132 440.844 104.369 441.334 103.414L445.132 105.582C444.26 107.218 443.008 108.513 441.375 109.468C439.741 110.422 437.931 110.899 435.943 110.899Z"/>
<path d="M452.485 86.0304C451.94 86.5758 451.287 86.8485 450.525 86.8485C449.762 86.8485 449.095 86.5758 448.524 86.0304C447.979 85.4578 447.707 84.7897 447.707 84.0261C447.707 83.2626 447.979 82.6082 448.524 82.0628C449.068 81.4902 449.735 81.2038 450.525 81.2038C451.314 81.2038 451.981 81.4902 452.526 82.0628C453.07 82.6082 453.342 83.2626 453.342 84.0261C453.342 84.7897 453.056 85.4578 452.485 86.0304ZM448.319 110.368V89.9162H452.73V110.368H448.319Z"/>
<path d="M467.488 110.899C464.493 110.899 461.948 109.863 459.852 107.791C457.755 105.718 456.707 103.169 456.707 100.142C456.707 97.1152 457.755 94.5655 459.852 92.4931C461.948 90.4207 464.493 89.3845 467.488 89.3845C470.51 89.3845 473.056 90.4207 475.125 92.4931C477.221 94.5655 478.269 97.1152 478.269 100.142C478.269 103.169 477.221 105.718 475.125 107.791C473.056 109.863 470.51 110.899 467.488 110.899ZM462.955 104.764C464.18 105.991 465.691 106.605 467.488 106.605C469.285 106.605 470.796 105.991 472.021 104.764C473.246 103.537 473.859 101.996 473.859 100.142C473.859 98.2877 473.246 96.747 472.021 95.5199C470.796 94.2928 469.285 93.6793 467.488 93.6793C465.691 93.6793 464.18 94.2928 462.955 95.5199C461.73 96.747 461.118 98.2877 461.118 100.142C461.118 101.996 461.73 103.537 462.955 104.764Z"/>
<path d="M485.819 95.5608C485.819 96.2426 486.187 96.7879 486.922 97.197C487.684 97.5787 488.596 97.9196 489.658 98.2195C490.747 98.4922 491.836 98.8194 492.925 99.2012C494.014 99.583 494.926 100.237 495.661 101.165C496.423 102.064 496.805 103.21 496.805 104.6C496.805 106.564 496.042 108.104 494.518 109.222C493.02 110.34 491.128 110.899 488.841 110.899C486.827 110.899 485.098 110.477 483.655 109.632C482.212 108.786 481.164 107.614 480.511 106.114L484.309 103.905C485.016 105.868 486.527 106.85 488.841 106.85C491.156 106.85 492.313 106.087 492.313 104.56C492.313 103.905 491.931 103.373 491.169 102.964C490.434 102.555 489.522 102.214 488.433 101.942C487.371 101.642 486.296 101.301 485.207 100.919C484.118 100.537 483.192 99.9102 482.43 99.0376C481.695 98.1377 481.327 97.0061 481.327 95.6426C481.327 93.7611 482.035 92.2477 483.451 91.1024C484.894 89.9571 486.677 89.3845 488.801 89.3845C490.489 89.3845 491.986 89.7662 493.293 90.5298C494.627 91.266 495.648 92.3022 496.355 93.6384L492.639 95.7244C491.931 94.1701 490.652 93.393 488.801 93.393C487.957 93.393 487.249 93.5838 486.677 93.9656C486.105 94.3201 485.819 94.8518 485.819 95.5608Z"/>
<path d="M505.102 109.959C504.503 110.559 503.781 110.859 502.937 110.859C502.093 110.859 501.372 110.559 500.773 109.959C500.174 109.359 499.874 108.636 499.874 107.791C499.874 106.946 500.16 106.223 500.732 105.623C501.331 105.023 502.066 104.723 502.937 104.723C503.781 104.723 504.503 105.023 505.102 105.623C505.701 106.223 506 106.946 506 107.791C506 108.636 505.701 109.359 505.102 109.959Z"/>
</mask>
<path d="M13.8636 33.1631C17.7568 33.1631 20.9693 34.5538 23.5012 37.3352C26.0603 40.0894 27.3399 43.4707 27.3399 47.4792C27.3399 51.4877 26.0603 54.8827 23.5012 57.6641C20.9693 60.4182 17.7568 61.7953 13.8636 61.7953H3.12352V33.1631H13.8636ZM13.8636 59.7502C17.1851 59.7502 19.9075 58.5776 22.031 56.2325C24.1546 53.8601 25.2163 50.9424 25.2163 47.4792C25.2163 44.0161 24.1546 41.112 22.031 38.7669C19.9075 36.3945 17.1851 35.2083 13.8636 35.2083H5.28788V59.7502H13.8636Z" stroke="url(#paint0_linear)" stroke-width="2" stroke-linecap="round" stroke-linejoin="round" mask="url(#path-2-outside-1)"/>
<path d="M41.5741 40.8938C44.5688 40.8938 46.9918 41.9573 48.8431 44.0843C50.7216 46.2112 51.6608 48.7336 51.6608 51.6513C51.6608 51.7604 51.6472 51.924 51.62 52.1422C51.62 52.3603 51.62 52.5239 51.62 52.633H33.1208C33.3659 54.9236 34.2779 56.7779 35.8569 58.1958C37.4632 59.5865 39.437 60.2819 41.7783 60.2819C43.4118 60.2819 44.841 59.941 46.0662 59.2593C47.2913 58.5776 48.2169 57.6777 48.8431 56.5597L50.6399 57.6232C49.7959 59.0412 48.5981 60.1728 47.0462 61.0182C45.4944 61.8362 43.7248 62.2452 41.7374 62.2452C38.6066 62.2452 36.0339 61.2499 34.0193 59.2593C32.0046 57.2414 30.9973 54.6782 30.9973 51.5695C30.9973 48.5154 31.9774 45.9794 33.9376 43.9616C35.925 41.9164 38.4705 40.8938 41.5741 40.8938ZM41.5741 42.8572C39.26 42.8572 37.327 43.5798 35.7752 45.025C34.2234 46.4703 33.3386 48.3382 33.1208 50.6288H49.5373C49.3195 48.2018 48.4483 46.3067 46.9237 44.9432C45.4264 43.5525 43.6432 42.8572 41.5741 42.8572Z" stroke="url(#paint1_linear)" stroke-width="2" stroke-linecap="round" stroke-linejoin="round" mask="url(#path-2-outside-1)"/>
<path d="M65.785 62.2452C62.7086 62.2452 60.1495 61.2227 58.1076 59.1775C56.0658 57.1324 55.0449 54.5964 55.0449 51.5695C55.0449 48.5427 56.0658 46.0067 58.1076 43.9616C60.1495 41.9164 62.7086 40.8938 65.785 40.8938C67.7724 40.8938 69.5692 41.371 71.1755 42.3254C72.7817 43.2526 73.9524 44.5206 74.6875 46.1294L73.0131 47.1111C72.4142 45.8022 71.4613 44.766 70.1545 44.0025C68.875 43.2389 67.4185 42.8572 65.785 42.8572C63.3348 42.8572 61.2793 43.7025 59.6186 45.3932C57.9579 47.0566 57.1276 49.1153 57.1276 51.5695C57.1276 54.0237 57.9579 56.0961 59.6186 57.7868C61.2793 59.4502 63.3348 60.2819 65.785 60.2819C67.4185 60.2819 68.875 59.9001 70.1545 59.1366C71.4613 58.3731 72.455 57.3369 73.1357 56.028L74.8508 57.0505C74.0341 58.6321 72.809 59.9001 71.1755 60.8545C69.5692 61.7817 67.7724 62.2452 65.785 62.2452Z" stroke="url(#paint2_linear)" stroke-width="2" stroke-linecap="round" stroke-linejoin="round" mask="url(#path-2-outside-1)"/>
<path d="M88.4766 62.2452C85.4819 62.2452 82.9364 61.2227 80.8401 59.1775C78.771 57.1051 77.7365 54.5691 77.7365 51.5695C77.7365 48.57 78.771 46.0476 80.8401 44.0025C82.9364 41.93 85.4819 40.8938 88.4766 40.8938C91.4441 40.8938 93.9624 41.93 96.0315 44.0025C98.1278 46.0476 99.1759 48.57 99.1759 51.5695C99.1759 54.5691 98.1278 57.1051 96.0315 59.1775C93.9624 61.2227 91.4441 62.2452 88.4766 62.2452ZM82.3103 57.7459C83.9982 59.4366 86.0536 60.2819 88.4766 60.2819C90.8996 60.2819 92.9415 59.4366 94.6022 57.7459C96.2629 56.0552 97.0932 53.9964 97.0932 51.5695C97.0932 49.1426 96.2629 47.0838 94.6022 45.3932C92.9415 43.7025 90.8996 42.8572 88.4766 42.8572C86.0536 42.8572 83.9982 43.7025 82.3103 45.3932C80.6496 47.0838 79.8192 49.1426 79.8192 51.5695C79.8192 53.9964 80.6496 56.0552 82.3103 57.7459Z" stroke="url(#paint3_linear)" stroke-width="2" stroke-linecap="round" stroke-linejoin="round" mask="url(#path-2-outside-1)"/>
<path d="M104.09 61.7953V31.936H106.132V61.7953H104.09Z" stroke="url(#paint4_linear)" stroke-width="2" stroke-linecap="round" stroke-linejoin="round" mask="url(#path-2-outside-1)"/>
<path d="M130.393 41.3438H132.476V61.7953H130.393V57.1733C129.522 58.7548 128.324 59.9956 126.799 60.8954C125.275 61.7953 123.546 62.2452 121.613 62.2452C118.7 62.2452 116.209 61.2227 114.14 59.1775C112.071 57.1051 111.036 54.5691 111.036 51.5695C111.036 48.57 112.071 46.0476 114.14 44.0025C116.209 41.93 118.7 40.8938 121.613 40.8938C123.546 40.8938 125.275 41.3438 126.799 42.2436C128.324 43.1435 129.522 44.3842 130.393 45.9658V41.3438ZM115.61 57.7459C117.298 59.4366 119.353 60.2819 121.776 60.2819C124.199 60.2819 126.241 59.4366 127.902 57.7459C129.563 56.0552 130.393 53.9964 130.393 51.5695C130.393 49.1426 129.563 47.0838 127.902 45.3932C126.241 43.7025 124.199 42.8572 121.776 42.8572C119.353 42.8572 117.298 43.7025 115.61 45.3932C113.949 47.0838 113.119 49.1426 113.119 51.5695C113.119 53.9964 113.949 56.0552 115.61 57.7459Z" stroke="url(#paint5_linear)" stroke-width="2" stroke-linecap="round" stroke-linejoin="round" mask="url(#path-2-outside-1)"/>
<path d="M148.097 40.8938C150.52 40.8938 152.439 41.6437 153.855 43.1435C155.298 44.616 156.019 46.593 156.019 49.0744V61.7953H153.937V49.0744C153.937 47.1656 153.406 45.6522 152.344 44.5342C151.31 43.4162 149.839 42.8572 147.934 42.8572C145.837 42.8572 144.122 43.5525 142.788 44.9432C141.454 46.3339 140.787 48.3518 140.787 50.9969V61.7953H138.745V41.3438H140.787V45.2295C142.257 42.3391 144.694 40.8938 148.097 40.8938Z" stroke="url(#paint6_linear)" stroke-width="2" stroke-linecap="round" stroke-linejoin="round" mask="url(#path-2-outside-1)"/>
<path d="M179.805 33.1631H181.847V61.7953H179.805V57.0505C178.961 58.6594 177.763 59.9274 176.211 60.8545C174.687 61.7817 172.958 62.2452 171.025 62.2452C168.085 62.2452 165.58 61.2227 163.511 59.1775C161.469 57.1051 160.448 54.5691 160.448 51.5695C160.448 48.57 161.469 46.0476 163.511 44.0025C165.58 41.93 168.085 40.8938 171.025 40.8938C172.958 40.8938 174.687 41.3574 176.211 42.2845C177.763 43.2117 178.961 44.4797 179.805 46.0885V33.1631ZM164.981 57.7459C166.669 59.4366 168.725 60.2819 171.148 60.2819C173.571 60.2819 175.612 59.4366 177.273 57.7459C178.961 56.0552 179.805 53.9964 179.805 51.5695C179.805 49.1426 178.961 47.0838 177.273 45.3932C175.612 43.7025 173.571 42.8572 171.148 42.8572C168.725 42.8572 166.669 43.7025 164.981 45.3932C163.321 47.0838 162.49 49.1426 162.49 51.5695C162.49 53.9964 163.321 56.0552 164.981 57.7459Z" stroke="url(#paint7_linear)" stroke-width="2" stroke-linecap="round" stroke-linejoin="round" mask="url(#path-2-outside-1)"/>
<path d="M197.468 62.2452C194.474 62.2452 191.928 61.2227 189.832 59.1775C187.763 57.1051 186.728 54.5691 186.728 51.5695C186.728 48.57 187.763 46.0476 189.832 44.0025C191.928 41.93 194.474 40.8938 197.468 40.8938C200.436 40.8938 202.954 41.93 205.023 44.0025C207.119 46.0476 208.168 48.57 208.168 51.5695C208.168 54.5691 207.119 57.1051 205.023 59.1775C202.954 61.2227 200.436 62.2452 197.468 62.2452ZM191.302 57.7459C192.99 59.4366 195.045 60.2819 197.468 60.2819C199.891 60.2819 201.933 59.4366 203.594 57.7459C205.255 56.0552 206.085 53.9964 206.085 51.5695C206.085 49.1426 205.255 47.0838 203.594 45.3932C201.933 43.7025 199.891 42.8572 197.468 42.8572C195.045 42.8572 192.99 43.7025 191.302 45.3932C189.641 47.0838 188.811 49.1426 188.811 51.5695C188.811 53.9964 189.641 56.0552 191.302 57.7459Z" stroke="url(#paint8_linear)" stroke-width="2" stroke-linecap="round" stroke-linejoin="round" mask="url(#path-2-outside-1)"/>
<path d="M224.377 33.1631H226.541V61.7953H224.377V33.1631Z" stroke="url(#paint9_linear)" stroke-width="2" stroke-linecap="round" stroke-linejoin="round" mask="url(#path-2-outside-1)"/>
<path d="M251.23 33.1631H253.272V61.7953H251.23V57.0505C250.386 58.6594 249.188 59.9274 247.636 60.8545C246.112 61.7817 244.383 62.2452 242.45 62.2452C239.51 62.2452 237.005 61.2227 234.936 59.1775C232.894 57.1051 231.873 54.5691 231.873 51.5695C231.873 48.57 232.894 46.0476 234.936 44.0025C237.005 41.93 239.51 40.8938 242.45 40.8938C244.383 40.8938 246.112 41.3574 247.636 42.2845C249.188 43.2117 250.386 44.4797 251.23 46.0885V33.1631ZM236.406 57.7459C238.094 59.4366 240.149 60.2819 242.572 60.2819C244.995 60.2819 247.037 59.4366 248.698 57.7459C250.386 56.0552 251.23 53.9964 251.23 51.5695C251.23 49.1426 250.386 47.0838 248.698 45.3932C247.037 43.7025 244.995 42.8572 242.572 42.8572C240.149 42.8572 238.094 43.7025 236.406 45.3932C234.745 47.0838 233.915 49.1426 233.915 51.5695C233.915 53.9964 234.745 56.0552 236.406 57.7459Z" stroke="url(#paint10_linear)" stroke-width="2" stroke-linecap="round" stroke-linejoin="round" mask="url(#path-2-outside-1)"/>
<path d="M268.73 40.8938C271.725 40.8938 274.148 41.9573 275.999 44.0843C277.877 46.2112 278.817 48.7336 278.817 51.6513C278.817 51.7604 278.803 51.924 278.776 52.1422C278.776 52.3603 278.776 52.5239 278.776 52.633H260.277C260.522 54.9236 261.434 56.7779 263.013 58.1958C264.619 59.5865 266.593 60.2819 268.934 60.2819C270.567 60.2819 271.997 59.941 273.222 59.2593C274.447 58.5776 275.373 57.6777 275.999 56.5597L277.796 57.6232C276.952 59.0412 275.754 60.1728 274.202 61.0182C272.65 61.8362 270.881 62.2452 268.893 62.2452C265.762 62.2452 263.19 61.2499 261.175 59.2593C259.16 57.2414 258.153 54.6782 258.153 51.5695C258.153 48.5154 259.133 45.9794 261.093 43.9616C263.081 41.9164 265.626 40.8938 268.73 40.8938ZM268.73 42.8572C266.416 42.8572 264.483 43.5798 262.931 45.025C261.379 46.4703 260.494 48.3382 260.277 50.6288H276.693C276.475 48.2018 275.604 46.3067 274.079 44.9432C272.582 43.5525 270.799 42.8572 268.73 42.8572Z" stroke="url(#paint11_linear)" stroke-width="2" stroke-linecap="round" stroke-linejoin="round" mask="url(#path-2-outside-1)"/>
<path d="M285.753 35.9445C285.427 36.2445 285.046 36.3945 284.61 36.3945C284.174 36.3945 283.793 36.2445 283.467 35.9445C283.14 35.6173 282.977 35.2219 282.977 34.7584C282.977 34.322 283.14 33.9539 283.467 33.654C283.793 33.3267 284.174 33.1631 284.61 33.1631C285.046 33.1631 285.427 33.3267 285.753 33.654C286.08 33.9539 286.243 34.322 286.243 34.7584C286.243 35.2219 286.08 35.6173 285.753 35.9445ZM283.589 61.7953V41.3438H285.631V61.7953H283.589Z" stroke="url(#paint12_linear)" stroke-width="2" stroke-linecap="round" stroke-linejoin="round" mask="url(#path-2-outside-1)"/>
<path d="M309.892 41.3438H311.975V61.7953H309.892V57.1733C309.021 58.7548 307.823 59.9956 306.299 60.8954C304.774 61.7953 303.045 62.2452 301.112 62.2452C298.199 62.2452 295.708 61.2227 293.639 59.1775C291.57 57.1051 290.535 54.5691 290.535 51.5695C290.535 48.57 291.57 46.0476 293.639 44.0025C295.708 41.93 298.199 40.8938 301.112 40.8938C303.045 40.8938 304.774 41.3438 306.299 42.2436C307.823 43.1435 309.021 44.3842 309.892 45.9658V41.3438ZM295.109 57.7459C296.797 59.4366 298.853 60.2819 301.276 60.2819C303.699 60.2819 305.74 59.4366 307.401 57.7459C309.062 56.0552 309.892 53.9964 309.892 51.5695C309.892 49.1426 309.062 47.0838 307.401 45.3932C305.74 43.7025 303.699 42.8572 301.276 42.8572C298.853 42.8572 296.797 43.7025 295.109 45.3932C293.449 47.0838 292.618 49.1426 292.618 51.5695C292.618 53.9964 293.449 56.0552 295.109 57.7459Z" stroke="url(#paint13_linear)" stroke-width="2" stroke-linecap="round" stroke-linejoin="round" mask="url(#path-2-outside-1)"/>
<path d="M319.633 46.7021C319.633 47.711 320.055 48.5018 320.899 49.0744C321.743 49.6471 322.778 50.0834 324.003 50.3833C325.228 50.656 326.439 50.9696 327.637 51.3241C328.862 51.6786 329.897 52.2785 330.741 53.1238C331.585 53.9419 332.007 55.0463 332.007 56.437C332.007 58.1277 331.326 59.5184 329.965 60.6091C328.631 61.6999 326.875 62.2452 324.697 62.2452C322.737 62.2452 321.076 61.8362 319.715 61.0182C318.381 60.1728 317.455 59.0684 316.938 57.705L318.694 56.6824C319.075 57.8004 319.783 58.6867 320.817 59.3411C321.879 59.9683 323.172 60.2819 324.697 60.2819C326.221 60.2819 327.474 59.9547 328.454 59.3002C329.461 58.6185 329.965 57.6641 329.965 56.437C329.965 55.4281 329.543 54.6236 328.699 54.0237C327.855 53.4238 326.82 52.9875 325.595 52.7148C324.37 52.4149 323.145 52.0876 321.92 51.7331C320.722 51.3787 319.701 50.7924 318.857 49.9743C318.013 49.1562 317.591 48.0655 317.591 46.7021C317.591 45.0659 318.231 43.6889 319.511 42.5708C320.817 41.4528 322.492 40.8938 324.534 40.8938C326.167 40.8938 327.583 41.2619 328.781 41.9982C330.006 42.7345 330.904 43.7298 331.476 44.9841L329.761 45.9658C329.352 44.9569 328.672 44.1933 327.719 43.6752C326.766 43.1299 325.704 42.8572 324.534 42.8572C323.145 42.8572 321.974 43.2117 321.022 43.9206C320.096 44.6024 319.633 45.5295 319.633 46.7021Z" stroke="url(#paint14_linear)" stroke-width="2" stroke-linecap="round" stroke-linejoin="round" mask="url(#path-2-outside-1)"/>
<path d="M5.61458 102.024C5.94127 103.578 6.68995 104.778 7.86061 105.623C9.03127 106.441 10.4606 106.85 12.1485 106.85C14.4898 106.85 16.2458 106.005 17.4165 104.314L21.051 106.441C19.0363 109.413 16.0552 110.899 12.1077 110.899C8.78625 110.899 6.10462 109.891 4.06277 107.873C2.02092 105.828 1 103.251 1 100.142C1 97.0879 2.00731 94.5383 4.02194 92.4931C6.03656 90.4207 8.6229 89.3845 11.781 89.3845C14.7757 89.3845 17.2259 90.4343 19.1316 92.534C21.0646 94.6337 22.031 97.1833 22.031 100.183C22.031 100.646 21.9766 101.26 21.8677 102.024H5.61458ZM5.57374 98.424H17.5798C17.2803 96.7607 16.5861 95.5063 15.4971 94.661C14.4354 93.8156 13.183 93.393 11.7401 93.393C10.1066 93.393 8.74541 93.8429 7.65643 94.7428C6.56744 95.6426 5.87321 96.8697 5.57374 98.424Z" stroke="url(#paint15_linear)" stroke-width="2" stroke-linecap="round" stroke-linejoin="round" mask="url(#path-2-outside-1)"/>
<path d="M36.4069 81.7356H41.1032V110.368H36.4069V81.7356Z" stroke="url(#paint16_linear)" stroke-width="2" stroke-linecap="round" stroke-linejoin="round" mask="url(#path-2-outside-1)"/>
<path d="M68.8267 89.3845C71.1408 89.3845 73.0057 90.1343 74.4214 91.6341C75.8371 93.1339 76.5449 95.1518 76.5449 97.6878V110.368H72.1345V97.9741C72.1345 96.5561 71.7806 95.4654 71.0727 94.7019C70.3649 93.9111 69.3984 93.5157 68.1733 93.5157C66.8121 93.5157 65.7231 93.9656 64.9064 94.8655C64.1168 95.7653 63.7221 97.1152 63.7221 98.9149V110.368H59.3117V97.9741C59.3117 96.5561 58.9714 95.4654 58.2908 94.7019C57.6374 93.9111 56.6981 93.5157 55.473 93.5157C54.139 93.5157 53.05 93.9792 52.2061 94.9064C51.3621 95.8063 50.9401 97.1424 50.9401 98.9149V110.368H46.5297V89.9162H50.9401V92.3704C52.2469 90.3798 54.1935 89.3845 56.7798 89.3845C59.3934 89.3845 61.3263 90.4616 62.5787 92.6158C63.9399 90.4616 66.0226 89.3845 68.8267 89.3845Z" stroke="url(#paint17_linear)" stroke-width="2" stroke-linecap="round" stroke-linejoin="round" mask="url(#path-2-outside-1)"/>
<path d="M92.822 89.3845C95.6261 89.3845 98.0219 90.4343 100.009 92.534C101.997 94.6064 102.99 97.1424 102.99 100.142C102.99 103.169 101.997 105.718 100.009 107.791C98.0219 109.863 95.6261 110.899 92.822 110.899C89.7183 110.899 87.3362 109.754 85.6755 107.464V118.548H81.2651V89.9162H85.6755V92.8612C87.3362 90.5434 89.7183 89.3845 92.822 89.3845ZM87.5131 104.846C88.7383 106.073 90.2764 106.686 92.1277 106.686C93.979 106.686 95.5172 106.073 96.7423 104.846C97.9674 103.591 98.58 102.024 98.58 100.142C98.58 98.2604 97.9674 96.7061 96.7423 95.479C95.5172 94.2247 93.979 93.5975 92.1277 93.5975C90.2764 93.5975 88.7383 94.2247 87.5131 95.479C86.288 96.7061 85.6755 98.2604 85.6755 100.142C85.6755 102.024 86.288 103.591 87.5131 104.846Z" stroke="url(#paint18_linear)" stroke-width="2" stroke-linecap="round" stroke-linejoin="round" mask="url(#path-2-outside-1)"/>
<path d="M120.75 89.9162H125.16V110.368H120.75V107.75C119.416 109.85 117.306 110.899 114.42 110.899C112.079 110.899 110.186 110.15 108.744 108.65C107.301 107.15 106.579 105.091 106.579 102.473V89.9162H110.99V102.024C110.99 103.551 111.398 104.723 112.215 105.541C113.031 106.359 114.148 106.768 115.563 106.768C117.115 106.768 118.368 106.291 119.32 105.337C120.273 104.355 120.75 102.869 120.75 100.878V89.9162Z" stroke="url(#paint19_linear)" stroke-width="2" stroke-linecap="round" stroke-linejoin="round" mask="url(#path-2-outside-1)"/>
<path d="M130.317 110.368V80.5085H134.728V110.368H130.317Z" stroke="url(#paint20_linear)" stroke-width="2" stroke-linecap="round" stroke-linejoin="round" mask="url(#path-2-outside-1)"/>
<path d="M143.69 95.5608C143.69 96.2426 144.058 96.7879 144.793 97.197C145.555 97.5787 146.467 97.9196 147.529 98.2195C148.618 98.4922 149.707 98.8194 150.796 99.2012C151.885 99.583 152.797 100.237 153.532 101.165C154.294 102.064 154.675 103.21 154.675 104.6C154.675 106.564 153.913 108.104 152.388 109.222C150.891 110.34 148.999 110.899 146.712 110.899C144.697 110.899 142.969 110.477 141.526 109.632C140.083 108.786 139.035 107.614 138.381 106.114L142.179 103.905C142.887 105.868 144.398 106.85 146.712 106.85C149.026 106.85 150.183 106.087 150.183 104.56C150.183 103.905 149.802 103.373 149.04 102.964C148.305 102.555 147.393 102.214 146.304 101.942C145.242 101.642 144.167 101.301 143.078 100.919C141.989 100.537 141.063 99.9102 140.301 99.0376C139.566 98.1377 139.198 97.0061 139.198 95.6426C139.198 93.7611 139.906 92.2477 141.322 91.1024C142.765 89.9571 144.548 89.3845 146.671 89.3845C148.359 89.3845 149.857 89.7662 151.163 90.5298C152.497 91.266 153.518 92.3022 154.226 93.6384L150.51 95.7244C149.802 94.1701 148.523 93.393 146.671 93.393C145.827 93.393 145.119 93.5838 144.548 93.9656C143.976 94.3201 143.69 94.8518 143.69 95.5608Z" stroke="url(#paint21_linear)" stroke-width="2" stroke-linecap="round" stroke-linejoin="round" mask="url(#path-2-outside-1)"/>
<path d="M162.478 86.0304C161.934 86.5758 161.28 86.8485 160.518 86.8485C159.756 86.8485 159.089 86.5758 158.517 86.0304C157.973 85.4578 157.7 84.7897 157.7 84.0261C157.7 83.2626 157.973 82.6082 158.517 82.0628C159.062 81.4902 159.729 81.2038 160.518 81.2038C161.308 81.2038 161.975 81.4902 162.519 82.0628C163.064 82.6082 163.336 83.2626 163.336 84.0261C163.336 84.7897 163.05 85.4578 162.478 86.0304ZM158.313 110.368V89.9162H162.723V110.368H158.313Z" stroke="url(#paint22_linear)" stroke-width="2" stroke-linecap="round" stroke-linejoin="round" mask="url(#path-2-outside-1)"/>
<path d="M177.482 110.899C174.487 110.899 171.942 109.863 169.845 107.791C167.749 105.718 166.701 103.169 166.701 100.142C166.701 97.1152 167.749 94.5655 169.845 92.4931C171.942 90.4207 174.487 89.3845 177.482 89.3845C180.504 89.3845 183.049 90.4207 185.118 92.4931C187.215 94.5655 188.263 97.1152 188.263 100.142C188.263 103.169 187.215 105.718 185.118 107.791C183.049 109.863 180.504 110.899 177.482 110.899ZM172.949 104.764C174.174 105.991 175.685 106.605 177.482 106.605C179.279 106.605 180.79 105.991 182.015 104.764C183.24 103.537 183.852 101.996 183.852 100.142C183.852 98.2877 183.24 96.747 182.015 95.5199C180.79 94.2928 179.279 93.6793 177.482 93.6793C175.685 93.6793 174.174 94.2928 172.949 95.5199C171.724 96.747 171.111 98.2877 171.111 100.142C171.111 101.996 171.724 103.537 172.949 104.764Z" stroke="url(#paint23_linear)" stroke-width="2" stroke-linecap="round" stroke-linejoin="round" mask="url(#path-2-outside-1)"/>
<path d="M202.991 89.3845C205.332 89.3845 207.224 90.1343 208.667 91.6341C210.11 93.1339 210.832 95.1927 210.832 97.8105V110.368H206.421V98.2604C206.421 96.7334 206.013 95.5608 205.196 94.7428C204.379 93.9247 203.263 93.5157 201.847 93.5157C200.296 93.5157 199.043 94.0065 198.09 94.9882C197.138 95.9426 196.661 97.4151 196.661 99.4057V110.368H192.251V89.9162H196.661V92.534C197.995 90.4343 200.105 89.3845 202.991 89.3845Z" stroke="url(#paint24_linear)" stroke-width="2" stroke-linecap="round" stroke-linejoin="round" mask="url(#path-2-outside-1)"/>
<path d="M231.752 89.9162H236.162V110.368H231.752V107.423C230.091 109.741 227.709 110.899 224.605 110.899C221.801 110.899 219.406 109.863 217.418 107.791C215.431 105.691 214.437 103.142 214.437 100.142C214.437 97.1152 215.431 94.5655 217.418 92.4931C219.406 90.4207 221.801 89.3845 224.605 89.3845C227.709 89.3845 230.091 90.5297 231.752 92.8203V89.9162ZM220.685 104.846C221.91 106.073 223.448 106.686 225.3 106.686C227.151 106.686 228.689 106.073 229.914 104.846C231.139 103.591 231.752 102.024 231.752 100.142C231.752 98.2604 231.139 96.7061 229.914 95.479C228.689 94.2247 227.151 93.5975 225.3 93.5975C223.448 93.5975 221.91 94.2247 220.685 95.479C219.46 96.7061 218.847 98.2604 218.847 100.142C218.847 102.024 219.46 103.591 220.685 104.846Z" stroke="url(#paint25_linear)" stroke-width="2" stroke-linecap="round" stroke-linejoin="round" mask="url(#path-2-outside-1)"/>
<path d="M252.043 89.3845C254.384 89.3845 256.277 90.1343 257.719 91.6341C259.162 93.1339 259.884 95.1927 259.884 97.8105V110.368H255.473V98.2604C255.473 96.7334 255.065 95.5608 254.248 94.7428C253.432 93.9247 252.315 93.5157 250.9 93.5157C249.348 93.5157 248.096 94.0065 247.143 94.9882C246.19 95.9426 245.713 97.4151 245.713 99.4057V110.368H241.303V89.9162H245.713V92.534C247.047 90.4343 249.157 89.3845 252.043 89.3845Z" stroke="url(#paint26_linear)" stroke-width="2" stroke-linecap="round" stroke-linejoin="round" mask="url(#path-2-outside-1)"/>
<path d="M280.804 81.7356H285.215V110.368H280.804V107.423C279.143 109.741 276.761 110.899 273.658 110.899C270.854 110.899 268.458 109.863 266.47 107.791C264.483 105.691 263.489 103.142 263.489 100.142C263.489 97.1152 264.483 94.5655 266.47 92.4931C268.458 90.4207 270.854 89.3845 273.658 89.3845C276.761 89.3845 279.143 90.5297 280.804 92.8203V81.7356ZM269.737 104.846C270.962 106.073 272.501 106.686 274.352 106.686C276.203 106.686 277.741 106.073 278.966 104.846C280.192 103.591 280.804 102.024 280.804 100.142C280.804 98.2604 280.192 96.7061 278.966 95.479C277.741 94.2247 276.203 93.5975 274.352 93.5975C272.501 93.5975 270.962 94.2247 269.737 95.479C268.512 96.7061 267.9 98.2604 267.9 100.142C267.9 102.024 268.512 103.591 269.737 104.846Z" stroke="url(#paint27_linear)" stroke-width="2" stroke-linecap="round" stroke-linejoin="round" mask="url(#path-2-outside-1)"/>
<path d="M299.993 110.899C296.998 110.899 294.453 109.863 292.356 107.791C290.26 105.718 289.212 103.169 289.212 100.142C289.212 97.1152 290.26 94.5655 292.356 92.4931C294.453 90.4207 296.998 89.3845 299.993 89.3845C303.015 89.3845 305.56 90.4207 307.629 92.4931C309.726 94.5655 310.774 97.1152 310.774 100.142C310.774 103.169 309.726 105.718 307.629 107.791C305.56 109.863 303.015 110.899 299.993 110.899ZM295.46 104.764C296.685 105.991 298.196 106.605 299.993 106.605C301.79 106.605 303.301 105.991 304.526 104.764C305.751 103.537 306.363 101.996 306.363 100.142C306.363 98.2877 305.751 96.747 304.526 95.5199C303.301 94.2928 301.79 93.6793 299.993 93.6793C298.196 93.6793 296.685 94.2928 295.46 95.5199C294.235 96.747 293.622 98.2877 293.622 100.142C293.622 101.996 294.235 103.537 295.46 104.764Z" stroke="url(#paint28_linear)" stroke-width="2" stroke-linecap="round" stroke-linejoin="round" mask="url(#path-2-outside-1)"/>
<path d="M342.408 81.7356H347.105V110.368H343.429L329.953 90.9388V110.368H325.257V81.7356H328.932L342.408 101.165V81.7356Z" stroke="url(#paint29_linear)" stroke-width="2" stroke-linecap="round" stroke-linejoin="round" mask="url(#path-2-outside-1)"/>
<path d="M355.999 102.024C356.326 103.578 357.074 104.778 358.245 105.623C359.416 106.441 360.845 106.85 362.533 106.85C364.874 106.85 366.63 106.005 367.801 104.314L371.435 106.441C369.421 109.413 366.44 110.899 362.492 110.899C359.171 110.899 356.489 109.891 354.447 107.873C352.405 105.828 351.384 103.251 351.384 100.142C351.384 97.0879 352.392 94.5383 354.406 92.4931C356.421 90.4207 359.007 89.3845 362.165 89.3845C365.16 89.3845 367.61 90.4343 369.516 92.534C371.449 94.6337 372.416 97.1833 372.416 100.183C372.416 100.646 372.361 101.26 372.252 102.024H355.999ZM355.958 98.424H367.964C367.665 96.7607 366.971 95.5063 365.882 94.661C364.82 93.8156 363.568 93.393 362.125 93.393C360.491 93.393 359.13 93.8429 358.041 94.7428C356.952 95.6426 356.258 96.8697 355.958 98.424Z" stroke="url(#paint30_linear)" stroke-width="2" stroke-linecap="round" stroke-linejoin="round" mask="url(#path-2-outside-1)"/>
<path d="M392.43 89.9162H396.759V109.427C396.759 112.536 395.738 114.922 393.696 116.585C391.654 118.248 389.176 119.08 386.263 119.08C381.554 119.08 378.327 117.43 376.585 114.131L380.383 111.922C381.445 114.022 383.432 115.072 386.345 115.072C388.251 115.072 389.735 114.567 390.796 113.558C391.885 112.577 392.43 111.199 392.43 109.427V106.932C390.769 109.304 388.401 110.49 385.324 110.49C382.438 110.49 380.002 109.468 378.014 107.423C376.027 105.35 375.033 102.855 375.033 99.9375C375.033 97.0197 376.027 94.5383 378.014 92.4931C380.002 90.4207 382.438 89.3845 385.324 89.3845C388.401 89.3845 390.769 90.5707 392.43 92.943V89.9162ZM381.281 104.519C382.534 105.746 384.085 106.359 385.937 106.359C387.788 106.359 389.326 105.746 390.551 104.519C391.804 103.292 392.43 101.764 392.43 99.9375C392.43 98.1105 391.804 96.5834 390.551 95.3563C389.326 94.1292 387.788 93.5157 385.937 93.5157C384.085 93.5157 382.534 94.1292 381.281 95.3563C380.056 96.5834 379.444 98.1105 379.444 99.9375C379.444 101.764 380.056 103.292 381.281 104.519Z" stroke="url(#paint31_linear)" stroke-width="2" stroke-linecap="round" stroke-linejoin="round" mask="url(#path-2-outside-1)"/>
<path d="M408.678 87.053H412.925L417.254 81.5311H411.945L408.678 87.053ZM411.537 110.899C408.542 110.899 405.997 109.863 403.9 107.791C401.804 105.718 400.756 103.169 400.756 100.142C400.756 97.1152 401.804 94.5655 403.9 92.4931C405.997 90.4207 408.542 89.3845 411.537 89.3845C414.559 89.3845 417.104 90.4207 419.173 92.4931C421.27 94.5655 422.318 97.1152 422.318 100.142C422.318 103.169 421.27 105.718 419.173 107.791C417.104 109.863 414.559 110.899 411.537 110.899ZM407.004 104.764C408.229 105.991 409.74 106.605 411.537 106.605C413.334 106.605 414.845 105.991 416.07 104.764C417.295 103.537 417.907 101.996 417.907 100.142C417.907 98.2877 417.295 96.747 416.07 95.5199C414.845 94.2928 413.334 93.6793 411.537 93.6793C409.74 93.6793 408.229 94.2928 407.004 95.5199C405.779 96.747 405.166 98.2877 405.166 100.142C405.166 101.996 405.779 103.537 407.004 104.764Z" stroke="url(#paint32_linear)" stroke-width="2" stroke-linecap="round" stroke-linejoin="round" mask="url(#path-2-outside-1)"/>
<path d="M435.943 110.899C432.867 110.899 430.294 109.863 428.225 107.791C426.183 105.718 425.162 103.169 425.162 100.142C425.162 97.0879 426.183 94.5383 428.225 92.4931C430.294 90.4207 432.867 89.3845 435.943 89.3845C437.931 89.3845 439.741 89.8617 441.375 90.8161C443.008 91.7705 444.233 93.0521 445.05 94.661L441.252 96.8697C440.789 95.8881 440.081 95.1245 439.128 94.5792C438.203 94.0065 437.127 93.7202 435.902 93.7202C434.106 93.7202 432.595 94.3337 431.369 95.5608C430.172 96.7879 429.573 98.315 429.573 100.142C429.573 101.969 430.172 103.496 431.369 104.723C432.595 105.95 434.106 106.564 435.902 106.564C437.1 106.564 438.176 106.277 439.128 105.705C440.109 105.132 440.844 104.369 441.334 103.414L445.132 105.582C444.26 107.218 443.008 108.513 441.375 109.468C439.741 110.422 437.931 110.899 435.943 110.899Z" stroke="url(#paint33_linear)" stroke-width="2" stroke-linecap="round" stroke-linejoin="round" mask="url(#path-2-outside-1)"/>
<path d="M452.485 86.0304C451.94 86.5758 451.287 86.8485 450.525 86.8485C449.762 86.8485 449.095 86.5758 448.524 86.0304C447.979 85.4578 447.707 84.7897 447.707 84.0261C447.707 83.2626 447.979 82.6082 448.524 82.0628C449.068 81.4902 449.735 81.2038 450.525 81.2038C451.314 81.2038 451.981 81.4902 452.526 82.0628C453.07 82.6082 453.342 83.2626 453.342 84.0261C453.342 84.7897 453.056 85.4578 452.485 86.0304ZM448.319 110.368V89.9162H452.73V110.368H448.319Z" stroke="url(#paint34_linear)" stroke-width="2" stroke-linecap="round" stroke-linejoin="round" mask="url(#path-2-outside-1)"/>
<path d="M467.488 110.899C464.493 110.899 461.948 109.863 459.852 107.791C457.755 105.718 456.707 103.169 456.707 100.142C456.707 97.1152 457.755 94.5655 459.852 92.4931C461.948 90.4207 464.493 89.3845 467.488 89.3845C470.51 89.3845 473.056 90.4207 475.125 92.4931C477.221 94.5655 478.269 97.1152 478.269 100.142C478.269 103.169 477.221 105.718 475.125 107.791C473.056 109.863 470.51 110.899 467.488 110.899ZM462.955 104.764C464.18 105.991 465.691 106.605 467.488 106.605C469.285 106.605 470.796 105.991 472.021 104.764C473.246 103.537 473.859 101.996 473.859 100.142C473.859 98.2877 473.246 96.747 472.021 95.5199C470.796 94.2928 469.285 93.6793 467.488 93.6793C465.691 93.6793 464.18 94.2928 462.955 95.5199C461.73 96.747 461.118 98.2877 461.118 100.142C461.118 101.996 461.73 103.537 462.955 104.764Z" stroke="url(#paint35_linear)" stroke-width="2" stroke-linecap="round" stroke-linejoin="round" mask="url(#path-2-outside-1)"/>
<path d="M485.819 95.5608C485.819 96.2426 486.187 96.7879 486.922 97.197C487.684 97.5787 488.596 97.9196 489.658 98.2195C490.747 98.4922 491.836 98.8194 492.925 99.2012C494.014 99.583 494.926 100.237 495.661 101.165C496.423 102.064 496.805 103.21 496.805 104.6C496.805 106.564 496.042 108.104 494.518 109.222C493.02 110.34 491.128 110.899 488.841 110.899C486.827 110.899 485.098 110.477 483.655 109.632C482.212 108.786 481.164 107.614 480.511 106.114L484.309 103.905C485.016 105.868 486.527 106.85 488.841 106.85C491.156 106.85 492.313 106.087 492.313 104.56C492.313 103.905 491.931 103.373 491.169 102.964C490.434 102.555 489.522 102.214 488.433 101.942C487.371 101.642 486.296 101.301 485.207 100.919C484.118 100.537 483.192 99.9102 482.43 99.0376C481.695 98.1377 481.327 97.0061 481.327 95.6426C481.327 93.7611 482.035 92.2477 483.451 91.1024C484.894 89.9571 486.677 89.3845 488.801 89.3845C490.489 89.3845 491.986 89.7662 493.293 90.5298C494.627 91.266 495.648 92.3022 496.355 93.6384L492.639 95.7244C491.931 94.1701 490.652 93.393 488.801 93.393C487.957 93.393 487.249 93.5838 486.677 93.9656C486.105 94.3201 485.819 94.8518 485.819 95.5608Z" stroke="url(#paint36_linear)" stroke-width="2" stroke-linecap="round" stroke-linejoin="round" mask="url(#path-2-outside-1)"/>
<path d="M505.102 109.959C504.503 110.559 503.781 110.859 502.937 110.859C502.093 110.859 501.372 110.559 500.773 109.959C500.174 109.359 499.874 108.636 499.874 107.791C499.874 106.946 500.16 106.223 500.732 105.623C501.331 105.023 502.066 104.723 502.937 104.723C503.781 104.723 504.503 105.023 505.102 105.623C505.701 106.223 506 106.946 506 107.791C506 108.636 505.701 109.359 505.102 109.959Z" stroke="url(#paint37_linear)" stroke-width="2" stroke-linecap="round" stroke-linejoin="round" mask="url(#path-2-outside-1)"/>
</g>
<path opacity="0.1" d="M68.5371 221.91L177.032 113.416" stroke="url(#paint38_linear)" stroke-width="2" stroke-linecap="round" stroke-linejoin="round"/>
<path opacity="0.1" d="M286.833 91.6299L377.463 1" stroke="url(#paint39_linear)" stroke-width="2" stroke-linecap="round" stroke-linejoin="round"/>
<defs>
<filter id="filter0_d" x="120.169" y="51.269" width="266.635" height="52.5585" filterUnits="userSpaceOnUse" color-interpolation-filters="sRGB">
<feFlood flood-opacity="0" result="BackgroundImageFix"/>
<feColorMatrix in="SourceAlpha" type="matrix" values="0 0 0 0 0 0 0 0 0 0 0 0 0 0 0 0 0 0 127 0"/>
<feOffset dy="2"/>
<feGaussianBlur stdDeviation="2"/>
<feColorMatrix type="matrix" values="0 0 0 0 0 0 0 0 0 0 0 0 0 0 0 0 0 0 0.05 0"/>
<feBlend mode="normal" in2="BackgroundImageFix" result="effect1_dropShadow"/>
<feBlend mode="normal" in="SourceGraphic" in2="effect1_dropShadow" result="shape"/>
</filter>
<linearGradient id="paint0_linear" x1="506" y1="31.936" x2="477.878" y2="190.671" gradientUnits="userSpaceOnUse">
<stop stop-color="white"/>
<stop offset="1" stop-color="white" stop-opacity="0"/>
</linearGradient>
<linearGradient id="paint1_linear" x1="506" y1="31.936" x2="477.878" y2="190.671" gradientUnits="userSpaceOnUse">
<stop stop-color="white"/>
<stop offset="1" stop-color="white" stop-opacity="0"/>
</linearGradient>
<linearGradient id="paint2_linear" x1="506" y1="31.936" x2="477.878" y2="190.671" gradientUnits="userSpaceOnUse">
<stop stop-color="white"/>
<stop offset="1" stop-color="white" stop-opacity="0"/>
</linearGradient>
<linearGradient id="paint3_linear" x1="506" y1="31.936" x2="477.878" y2="190.671" gradientUnits="userSpaceOnUse">
<stop stop-color="white"/>
<stop offset="1" stop-color="white" stop-opacity="0"/>
</linearGradient>
<linearGradient id="paint4_linear" x1="506" y1="31.936" x2="477.878" y2="190.671" gradientUnits="userSpaceOnUse">
<stop stop-color="white"/>
<stop offset="1" stop-color="white" stop-opacity="0"/>
</linearGradient>
<linearGradient id="paint5_linear" x1="506" y1="31.936" x2="477.878" y2="190.671" gradientUnits="userSpaceOnUse">
<stop stop-color="white"/>
<stop offset="1" stop-color="white" stop-opacity="0"/>
</linearGradient>
<linearGradient id="paint6_linear" x1="506" y1="31.936" x2="477.878" y2="190.671" gradientUnits="userSpaceOnUse">
<stop stop-color="white"/>
<stop offset="1" stop-color="white" stop-opacity="0"/>
</linearGradient>
<linearGradient id="paint7_linear" x1="506" y1="31.936" x2="477.878" y2="190.671" gradientUnits="userSpaceOnUse">
<stop stop-color="white"/>
<stop offset="1" stop-color="white" stop-opacity="0"/>
</linearGradient>
<linearGradient id="paint8_linear" x1="506" y1="31.936" x2="477.878" y2="190.671" gradientUnits="userSpaceOnUse">
<stop stop-color="white"/>
<stop offset="1" stop-color="white" stop-opacity="0"/>
</linearGradient>
<linearGradient id="paint9_linear" x1="506" y1="31.936" x2="477.878" y2="190.671" gradientUnits="userSpaceOnUse">
<stop stop-color="white"/>
<stop offset="1" stop-color="white" stop-opacity="0"/>
</linearGradient>
<linearGradient id="paint10_linear" x1="506" y1="31.936" x2="477.878" y2="190.671" gradientUnits="userSpaceOnUse">
<stop stop-color="white"/>
<stop offset="1" stop-color="white" stop-opacity="0"/>
</linearGradient>
<linearGradient id="paint11_linear" x1="506" y1="31.936" x2="477.878" y2="190.671" gradientUnits="userSpaceOnUse">
<stop stop-color="white"/>
<stop offset="1" stop-color="white" stop-opacity="0"/>
</linearGradient>
<linearGradient id="paint12_linear" x1="506" y1="31.936" x2="477.878" y2="190.671" gradientUnits="userSpaceOnUse">
<stop stop-color="white"/>
<stop offset="1" stop-color="white" stop-opacity="0"/>
</linearGradient>
<linearGradient id="paint13_linear" x1="506" y1="31.936" x2="477.878" y2="190.671" gradientUnits="userSpaceOnUse">
<stop stop-color="white"/>
<stop offset="1" stop-color="white" stop-opacity="0"/>
</linearGradient>
<linearGradient id="paint14_linear" x1="506" y1="31.936" x2="477.878" y2="190.671" gradientUnits="userSpaceOnUse">
<stop stop-color="white"/>
<stop offset="1" stop-color="white" stop-opacity="0"/>
</linearGradient>
<linearGradient id="paint15_linear" x1="506" y1="31.936" x2="477.878" y2="190.671" gradientUnits="userSpaceOnUse">
<stop stop-color="white"/>
<stop offset="1" stop-color="white" stop-opacity="0"/>
</linearGradient>
<linearGradient id="paint16_linear" x1="506" y1="31.936" x2="477.878" y2="190.671" gradientUnits="userSpaceOnUse">
<stop stop-color="white"/>
<stop offset="1" stop-color="white" stop-opacity="0"/>
</linearGradient>
<linearGradient id="paint17_linear" x1="506" y1="31.936" x2="477.878" y2="190.671" gradientUnits="userSpaceOnUse">
<stop stop-color="white"/>
<stop offset="1" stop-color="white" stop-opacity="0"/>
</linearGradient>
<linearGradient id="paint18_linear" x1="506" y1="31.936" x2="477.878" y2="190.671" gradientUnits="userSpaceOnUse">
<stop stop-color="white"/>
<stop offset="1" stop-color="white" stop-opacity="0"/>
</linearGradient>
<linearGradient id="paint19_linear" x1="506" y1="31.936" x2="477.878" y2="190.671" gradientUnits="userSpaceOnUse">
<stop stop-color="white"/>
<stop offset="1" stop-color="white" stop-opacity="0"/>
</linearGradient>
<linearGradient id="paint20_linear" x1="506" y1="31.936" x2="477.878" y2="190.671" gradientUnits="userSpaceOnUse">
<stop stop-color="white"/>
<stop offset="1" stop-color="white" stop-opacity="0"/>
</linearGradient>
<linearGradient id="paint21_linear" x1="506" y1="31.936" x2="477.878" y2="190.671" gradientUnits="userSpaceOnUse">
<stop stop-color="white"/>
<stop offset="1" stop-color="white" stop-opacity="0"/>
</linearGradient>
<linearGradient id="paint22_linear" x1="506" y1="31.936" x2="477.878" y2="190.671" gradientUnits="userSpaceOnUse">
<stop stop-color="white"/>
<stop offset="1" stop-color="white" stop-opacity="0"/>
</linearGradient>
<linearGradient id="paint23_linear" x1="506" y1="31.936" x2="477.878" y2="190.671" gradientUnits="userSpaceOnUse">
<stop stop-color="white"/>
<stop offset="1" stop-color="white" stop-opacity="0"/>
</linearGradient>
<linearGradient id="paint24_linear" x1="506" y1="31.936" x2="477.878" y2="190.671" gradientUnits="userSpaceOnUse">
<stop stop-color="white"/>
<stop offset="1" stop-color="white" stop-opacity="0"/>
</linearGradient>
<linearGradient id="paint25_linear" x1="506" y1="31.936" x2="477.878" y2="190.671" gradientUnits="userSpaceOnUse">
<stop stop-color="white"/>
<stop offset="1" stop-color="white" stop-opacity="0"/>
</linearGradient>
<linearGradient id="paint26_linear" x1="506" y1="31.936" x2="477.878" y2="190.671" gradientUnits="userSpaceOnUse">
<stop stop-color="white"/>
<stop offset="1" stop-color="white" stop-opacity="0"/>
</linearGradient>
<linearGradient id="paint27_linear" x1="506" y1="31.936" x2="477.878" y2="190.671" gradientUnits="userSpaceOnUse">
<stop stop-color="white"/>
<stop offset="1" stop-color="white" stop-opacity="0"/>
</linearGradient>
<linearGradient id="paint28_linear" x1="506" y1="31.936" x2="477.878" y2="190.671" gradientUnits="userSpaceOnUse">
<stop stop-color="white"/>
<stop offset="1" stop-color="white" stop-opacity="0"/>
</linearGradient>
<linearGradient id="paint29_linear" x1="506" y1="31.936" x2="477.878" y2="190.671" gradientUnits="userSpaceOnUse">
<stop stop-color="white"/>
<stop offset="1" stop-color="white" stop-opacity="0"/>
</linearGradient>
<linearGradient id="paint30_linear" x1="506" y1="31.936" x2="477.878" y2="190.671" gradientUnits="userSpaceOnUse">
<stop stop-color="white"/>
<stop offset="1" stop-color="white" stop-opacity="0"/>
</linearGradient>
<linearGradient id="paint31_linear" x1="506" y1="31.936" x2="477.878" y2="190.671" gradientUnits="userSpaceOnUse">
<stop stop-color="white"/>
<stop offset="1" stop-color="white" stop-opacity="0"/>
</linearGradient>
<linearGradient id="paint32_linear" x1="506" y1="31.936" x2="477.878" y2="190.671" gradientUnits="userSpaceOnUse">
<stop stop-color="white"/>
<stop offset="1" stop-color="white" stop-opacity="0"/>
</linearGradient>
<linearGradient id="paint33_linear" x1="506" y1="31.936" x2="477.878" y2="190.671" gradientUnits="userSpaceOnUse">
<stop stop-color="white"/>
<stop offset="1" stop-color="white" stop-opacity="0"/>
</linearGradient>
<linearGradient id="paint34_linear" x1="506" y1="31.936" x2="477.878" y2="190.671" gradientUnits="userSpaceOnUse">
<stop stop-color="white"/>
<stop offset="1" stop-color="white" stop-opacity="0"/>
</linearGradient>
<linearGradient id="paint35_linear" x1="506" y1="31.936" x2="477.878" y2="190.671" gradientUnits="userSpaceOnUse">
<stop stop-color="white"/>
<stop offset="1" stop-color="white" stop-opacity="0"/>
</linearGradient>
<linearGradient id="paint36_linear" x1="506" y1="31.936" x2="477.878" y2="190.671" gradientUnits="userSpaceOnUse">
<stop stop-color="white"/>
<stop offset="1" stop-color="white" stop-opacity="0"/>
</linearGradient>
<linearGradient id="paint37_linear" x1="506" y1="31.936" x2="477.878" y2="190.671" gradientUnits="userSpaceOnUse">
<stop stop-color="white"/>
<stop offset="1" stop-color="white" stop-opacity="0"/>
</linearGradient>
<linearGradient id="paint38_linear" x1="177.031" y1="113.416" x2="75.1526" y2="212.649" gradientUnits="userSpaceOnUse">
<stop stop-color="white"/>
<stop offset="1" stop-color="white" stop-opacity="0"/>
</linearGradient>
<linearGradient id="paint39_linear" x1="377.463" y1="1" x2="332.148" y2="46.3149" gradientUnits="userSpaceOnUse">
<stop stop-color="white"/>
<stop offset="1" stop-color="white" stop-opacity="0"/>
</linearGradient>
</defs>
</svg>
