<svg width="379" height="89" viewBox="0 0 379 89" fill="none" xmlns="http://www.w3.org/2000/svg">
<path d="M82.5296 7.35007C81.3496 12.3501 78.3796 23.4501 74.0996 29.1101C74.0076 29.2283 73.885 29.319 73.7451 29.3724C73.6051 29.4259 73.4532 29.4399 73.3059 29.4131C73.1585 29.3863 73.0213 29.3197 72.9091 29.2204C72.797 29.1212 72.7141 28.9931 72.6696 28.8501C71.7375 25.6263 70.0822 22.6576 67.8296 20.1701C65.3443 17.9122 62.3752 16.2532 59.1496 15.3201C59.0081 15.2757 58.8813 15.1937 58.7827 15.0829C58.684 14.9721 58.6173 14.8366 58.5896 14.6909C58.5619 14.5452 58.5743 14.3947 58.6253 14.2554C58.6764 14.1161 58.7643 13.9933 58.8796 13.9001C64.5496 9.62007 75.6496 6.64007 80.6496 5.46007C80.9117 5.39941 81.1847 5.40417 81.4446 5.47393C81.7044 5.54369 81.9431 5.6763 82.1396 5.86007C82.3239 6.05607 82.4562 6.29513 82.5244 6.55541C82.5925 6.8157 82.5943 7.08891 82.5296 7.35007Z" fill="#EE5A59"/>
<path d="M88.0001 44.0001C88.0025 53.616 84.8547 62.968 79.0382 70.6254C73.2218 78.2828 65.057 83.824 55.7929 86.4013C46.5287 88.9785 36.6753 88.4499 27.7401 84.8964C18.8048 81.3429 11.2796 74.96 6.31576 66.7243C1.35189 58.4886 -0.777359 48.8536 0.253736 39.293C1.28483 29.7325 5.41949 20.773 12.0252 13.7851C18.6309 6.79713 27.344 2.16559 36.8315 0.598931C46.319 -0.967723 56.0585 0.616784 64.5601 5.11006C62.112 6.08364 59.7531 7.26809 57.5101 8.65006C54.048 7.30739 50.4041 6.49165 46.7001 6.23006C27.1601 4.87006 6.00005 22.2701 11.0001 33.1201C14.8401 41.3601 8.00005 43.2601 10.6001 47.9001C11.2701 49.1001 12.8801 49.9601 14.1001 50.5901C30.1601 58.9201 41.0001 42.8801 44.0001 44.0001C45.1201 47.0001 29.0801 57.8501 37.4001 73.8701C38.0401 75.1001 38.8901 76.7001 40.1001 77.3701C44.7401 79.9401 46.6401 73.1301 54.8801 76.9801C65.7301 82.0001 83.1301 60.8401 81.7701 41.2901C81.5036 37.5899 80.688 33.9501 79.3501 30.4901C80.7294 28.263 81.9138 25.921 82.8901 23.4901C86.2407 29.8076 87.995 36.8489 88.0001 44.0001Z" fill="url(#paint0_linear)"/>
<path d="M130.48 55.4C127.987 55.4682 125.529 54.7929 123.42 53.46C121.488 52.2002 120.042 50.3206 119.32 48.13L121.9 46.64C122.37 48.3813 123.43 49.9051 124.9 50.95C126.566 52.0491 128.536 52.595 130.53 52.51C132.388 52.6107 134.225 52.0784 135.74 51C136.34 50.5482 136.823 49.9592 137.148 49.2824C137.474 48.6056 137.632 47.8607 137.61 47.11C137.651 46.4234 137.515 45.7378 137.213 45.1194C136.912 44.5011 136.456 43.9709 135.89 43.58C134.126 42.5011 132.221 41.67 130.23 41.11C128.078 40.5106 125.99 39.6965 124 38.68C122.936 38.1114 122.05 37.257 121.445 36.213C120.839 35.169 120.536 33.9766 120.57 32.77C120.519 31.6323 120.733 30.4982 121.194 29.4571C121.656 28.416 122.353 27.4961 123.23 26.77C125.09 25.2808 127.419 24.5042 129.8 24.58C131.973 24.5306 134.106 25.1636 135.9 26.39C137.586 27.5427 138.922 29.1378 139.76 31L137.23 32.4C136.697 30.89 135.688 29.5936 134.356 28.7048C133.024 27.8161 131.439 27.3828 129.84 27.47C128.225 27.3887 126.631 27.8693 125.33 28.83C124.767 29.2805 124.319 29.8578 124.022 30.5148C123.724 31.1718 123.587 31.8897 123.62 32.61C123.566 33.2596 123.678 33.9124 123.948 34.506C124.218 35.0995 124.635 35.6139 125.16 36C126.746 36.9935 128.467 37.7514 130.27 38.25L132.61 39.04C133.08 39.2 133.77 39.45 134.67 39.81C135.363 40.0611 136.032 40.3722 136.67 40.74C137.104 41.0067 137.624 41.3767 138.23 41.85C138.76 42.2258 139.212 42.7014 139.56 43.25C139.867 43.7873 140.112 44.3576 140.29 44.95C140.514 45.6446 140.625 46.3704 140.62 47.1C140.661 48.2579 140.43 49.4093 139.946 50.4618C139.461 51.5142 138.737 52.4384 137.83 53.16C135.719 54.7462 133.117 55.5391 130.48 55.4Z" fill="white"/>
<path d="M156.84 33.1101C158.303 33.0993 159.754 33.3805 161.107 33.9373C162.46 34.4941 163.688 35.3152 164.72 36.3526C165.752 37.39 166.566 38.6228 167.116 39.9789C167.665 41.335 167.939 42.787 167.92 44.2501C167.94 45.7139 167.667 47.1671 167.119 48.5243C166.57 49.8815 165.755 51.1155 164.723 52.154C163.692 53.1925 162.463 54.0145 161.109 54.5719C159.755 55.1293 158.304 55.4109 156.84 55.4001C155.107 55.4718 153.388 55.075 151.862 54.2514C150.336 53.4277 149.061 52.2078 148.17 50.7201V63.4001H145.34V33.6201H148.17V37.7901C149.061 36.3024 150.336 35.0824 151.862 34.2588C153.388 33.4351 155.107 33.0383 156.84 33.1101ZM150.62 50.2301C152.217 51.7598 154.349 52.604 156.561 52.5825C158.772 52.5609 160.888 51.6751 162.455 50.1145C164.022 48.554 164.917 46.4423 164.947 44.2309C164.978 42.0195 164.143 39.8837 162.62 38.2801C161.023 36.7504 158.89 35.9061 156.679 35.9277C154.467 35.9493 152.352 36.835 150.785 38.3956C149.218 39.9562 148.323 42.0678 148.292 44.2792C148.261 46.4907 149.097 48.6264 150.62 50.2301Z" fill="white"/>
<path d="M191.1 33.6201H193.94V54.8901H191.1V50.7201C190.211 52.2092 188.936 53.4304 187.41 54.2542C185.883 55.0781 184.163 55.474 182.43 55.4001C180.968 55.4028 179.521 55.1157 178.17 54.5554C176.82 53.9952 175.595 53.1728 174.564 52.136C173.534 51.0992 172.72 49.8684 172.168 48.5148C171.616 47.1612 171.338 45.7117 171.35 44.2501C171.339 42.7892 171.618 41.3408 172.171 39.9884C172.723 38.636 173.538 37.4064 174.568 36.3706C175.598 35.3348 176.823 34.5134 178.173 33.9538C179.522 33.3941 180.969 33.1074 182.43 33.1101C184.163 33.0361 185.883 33.432 187.41 34.2559C188.936 35.0797 190.211 36.3009 191.1 37.7901V33.6201ZM176.64 50.2301C178.237 51.7598 180.37 52.604 182.581 52.5825C184.793 52.5609 186.908 51.6751 188.475 50.1145C190.042 48.554 190.937 46.4423 190.968 44.2309C190.998 42.0195 190.163 39.8837 188.64 38.2801C187.034 36.7163 184.881 35.8412 182.64 35.8412C180.399 35.8412 178.246 36.7163 176.64 38.2801C175.07 39.8724 174.19 42.0188 174.19 44.2551C174.19 46.4913 175.07 48.6377 176.64 50.2301Z" fill="white"/>
<path d="M210 55.4001C208.507 55.4443 207.021 55.1822 205.633 54.6302C204.245 54.0781 202.985 53.2477 201.93 52.19C200.878 51.1577 200.05 49.9202 199.496 48.5544C198.942 47.1886 198.674 45.7235 198.71 44.2501C198.675 42.7782 198.943 41.3149 199.497 39.9508C200.051 38.5867 200.879 37.3509 201.93 36.32C203.742 34.5983 206.059 33.5038 208.54 33.1978C211.021 32.8918 213.534 33.3903 215.71 34.62C217.333 35.5564 218.623 36.9757 219.4 38.6801L217 40.0001C216.417 38.7328 215.447 37.6827 214.23 37.0001C212.95 36.2389 211.489 35.8349 210 35.8301C208.332 35.8301 206.701 36.3239 205.313 37.2492C203.925 38.1746 202.842 39.4901 202.2 41.03C201.559 42.57 201.387 44.2653 201.707 45.9025C202.028 47.5397 202.826 49.0455 204 50.23C205.342 51.5367 207.072 52.372 208.93 52.6101C210.787 52.8482 212.672 52.4761 214.3 51.55C215.55 50.8355 216.586 49.7997 217.3 48.55L219.67 49.91C218.78 51.5925 217.422 52.9817 215.76 53.91C214.009 54.9151 212.019 55.4298 210 55.4001Z" fill="white"/>
<path d="M233.35 33.1101C234.801 33.059 236.245 33.3323 237.577 33.9101C238.909 34.4879 240.096 35.3557 241.05 36.4501C242.99 38.6155 244.044 41.4327 244 44.3401C243.996 44.7812 243.969 45.2218 243.92 45.6601H225.06C225.269 47.6661 226.265 49.5073 227.83 50.7801C229.471 52.0774 231.519 52.7506 233.61 52.6801C235.079 52.7164 236.533 52.3719 237.83 51.6801C238.955 51.077 239.887 50.1689 240.52 49.0601L243 50.5101C242.043 52.0168 240.709 53.2474 239.13 54.0801C237.41 54.9817 235.491 55.4357 233.55 55.4001C232.035 55.4596 230.523 55.2111 229.107 54.6697C227.691 54.1283 226.399 53.3051 225.31 52.2501C224.258 51.207 223.433 49.9582 222.886 48.5817C222.339 47.2051 222.081 45.7306 222.13 44.2501C222.086 42.7695 222.347 41.2957 222.896 39.9199C223.445 38.5441 224.271 37.2955 225.321 36.2514C226.372 35.2072 227.626 34.3897 229.005 33.8494C230.384 33.3091 231.859 33.0575 233.34 33.1101H233.35ZM233.35 35.8301C231.298 35.7707 229.299 36.4845 227.75 37.8301C226.244 39.1441 225.284 40.9741 225.06 42.9601H241.06C240.888 40.9457 239.95 39.074 238.44 37.7301C237.034 36.4937 235.222 35.8175 233.35 35.8301Z" fill="white"/>
<path d="M265.63 54.89L259.28 44H253.44V54.89H248.5V25.11H260.5C261.771 25.0854 263.035 25.32 264.212 25.7997C265.39 26.2794 266.458 26.9941 267.35 27.9C268.26 28.7757 268.979 29.83 269.463 30.9967C269.946 32.1633 270.184 33.4173 270.16 34.68C270.169 36.5498 269.592 38.3754 268.51 39.9C267.444 41.4419 265.944 42.6322 264.2 43.32L271 54.89H265.63ZM253.44 29.71V39.66H260.52C261.149 39.6709 261.774 39.5471 262.352 39.297C262.929 39.047 263.447 38.6764 263.87 38.21C264.758 37.2491 265.252 35.9886 265.252 34.68C265.252 33.3714 264.758 32.1109 263.87 31.15C263.445 30.6865 262.927 30.3185 262.35 30.0703C261.772 29.822 261.148 29.6992 260.52 29.71H253.44Z" fill="white"/>
<path d="M283.54 55.44C282.058 55.4646 280.587 55.1913 279.212 54.6365C277.838 54.0816 276.589 53.2565 275.54 52.21C274.461 51.1811 273.609 49.9379 273.039 48.5601C272.469 47.1824 272.193 45.7006 272.23 44.21C272.193 42.7194 272.468 41.2374 273.038 39.8596C273.608 38.4818 274.46 37.2386 275.54 36.21C277.703 34.1369 280.584 32.9795 283.58 32.9795C286.576 32.9795 289.457 34.1369 291.62 36.21C293.72 38.325 294.899 41.1846 294.899 44.165C294.899 47.1455 293.72 50.0051 291.62 52.12C290.569 53.1926 289.31 54.04 287.921 54.6107C286.532 55.1815 285.041 55.4637 283.54 55.44ZM278.77 49.06C280.056 50.2628 281.761 50.9169 283.521 50.8836C285.282 50.8504 286.961 50.1323 288.201 48.8819C289.441 47.6315 290.145 45.947 290.163 44.1861C290.182 42.4252 289.513 40.7263 288.3 39.45C287.014 38.2473 285.309 37.5932 283.548 37.6265C281.788 37.6597 280.109 38.3778 278.869 39.6282C277.629 40.8786 276.925 42.563 276.907 44.324C276.888 46.0849 277.556 47.7838 278.77 49.06Z" fill="white"/>
<path d="M309.21 55.4401C307.713 55.4809 306.223 55.2155 304.832 54.66C303.441 54.1046 302.178 53.2709 301.12 52.2101C300.057 51.1723 299.219 49.926 298.66 48.5494C298.101 47.1728 297.832 45.6955 297.87 44.2101C297.83 42.7244 298.097 41.2464 298.657 39.8695C299.216 38.4925 300.055 37.2465 301.12 36.2101C302.179 35.1529 303.443 34.3229 304.834 33.7709C306.225 33.219 307.714 32.9567 309.21 33.0001C311.212 32.9794 313.184 33.4938 314.92 34.4901C316.574 35.4126 317.917 36.8046 318.78 38.4901L314.78 40.7801C314.306 39.7732 313.535 38.9357 312.57 38.3801C311.533 37.7882 310.355 37.4876 309.16 37.5101C308.28 37.4856 307.404 37.6426 306.587 37.9711C305.769 38.2997 305.029 38.7929 304.41 39.4201C303.462 40.3539 302.814 41.5498 302.55 42.8544C302.285 44.1589 302.417 45.5127 302.927 46.742C303.438 47.9713 304.304 49.0201 305.414 49.7538C306.525 50.4876 307.829 50.8728 309.16 50.8601C310.356 50.8731 311.533 50.5658 312.57 49.9701C313.545 49.4081 314.342 48.5834 314.87 47.5901L318.87 49.8401C317.956 51.5184 316.587 52.9048 314.92 53.8401C313.196 54.8795 311.223 55.4325 309.21 55.4401Z" fill="white"/>
<path d="M341.19 54.8901H335.65L326.85 45.0601V54.8901H322.22V25.1101H326.85V43.0001L335.18 33.6001H340.85L331.4 44.0001L341.19 54.8901Z" fill="white"/>
<path d="M346.26 46.2101C346.527 47.7122 347.375 49.0487 348.62 49.9301C349.949 50.8284 351.527 51.2834 353.13 51.2301C354.202 51.2978 355.273 51.0909 356.243 50.6289C357.212 50.167 358.048 49.4652 358.67 48.5901L362.49 50.8101C360.37 53.8967 357.237 55.4401 353.09 55.4401C351.539 55.5108 349.99 55.2663 348.535 54.7215C347.081 54.1766 345.753 53.3427 344.63 52.2701C343.57 51.2311 342.737 49.984 342.183 48.6071C341.629 47.2303 341.366 45.7536 341.41 44.2701C341.375 42.7795 341.645 41.2976 342.204 39.9153C342.763 38.5331 343.599 37.2798 344.66 36.2326C345.721 35.1854 346.986 34.3664 348.375 33.826C349.765 33.2855 351.25 33.0351 352.74 33.0901C354.191 33.0455 355.635 33.3146 356.972 33.879C358.31 34.4433 359.51 35.2896 360.49 36.3601C362.498 38.5319 363.575 41.4037 363.49 44.3601C363.475 44.9998 363.418 45.6378 363.32 46.2701L346.26 46.2101ZM346.26 42.4701H358.88C358.677 40.9394 357.902 39.5424 356.71 38.5601C355.569 37.672 354.156 37.2056 352.71 37.2401C351.16 37.1856 349.64 37.6815 348.42 38.6401C347.247 39.6082 346.466 40.9691 346.22 42.4701H346.26Z" fill="white"/>
<path d="M378.89 38H373.56V48.25C373.528 48.5907 373.565 48.9344 373.668 49.2608C373.771 49.5871 373.938 49.8895 374.16 50.15C374.662 50.5673 375.297 50.7908 375.95 50.78C376.929 50.8342 377.911 50.8342 378.89 50.78V54.91C375.34 55.33 372.79 55.03 371.25 53.99C369.71 52.95 368.93 51.05 368.93 48.27V38H365V33.62H368.95V29L373.58 27.64V33.59H378.91L378.89 38Z" fill="white"/>
<defs>
<linearGradient id="paint0_linear" x1="15.3001" y1="77.3401" x2="72.7801" y2="10.5701" gradientUnits="userSpaceOnUse">
<stop stop-color="#552EE5"/>
<stop offset="1" stop-color="#EE5A59"/>
</linearGradient>
</defs>
</svg>
