<svg width="31" height="48" viewBox="0 0 31 48" fill="none" xmlns="http://www.w3.org/2000/svg">
<path fill-rule="evenodd" clip-rule="evenodd" d="M6.50195 0C2.9121 0 0.00195312 2.91015 0.00195312 6.5V37.5V41.5C0.00195312 45.0899 2.9121 48 6.50195 48H23.502C27.0918 48 30.002 45.0899 30.002 41.5V37.5V6.5C30.002 2.91015 27.0918 0 23.502 0H6.50195ZM27.002 36V6.5C27.002 4.567 25.4349 3 23.502 3H6.50195C4.56896 3 3.00195 4.567 3.00195 6.5V36H27.002ZM3.00195 39H27.002V41.5C27.002 43.433 25.4349 45 23.502 45H6.50195C4.56896 45 3.00195 43.433 3.00195 41.5V39Z" fill="url(#paint0_linear)"/>
<defs>
<linearGradient id="paint0_linear" x1="5.21788" y1="42.1795" x2="35.3645" y2="20.2926" gradientUnits="userSpaceOnUse">
<stop stop-color="#552EE5"/>
<stop offset="1" stop-color="#EE5A59"/>
</linearGradient>
</defs>
</svg>
