<svg width="48" height="43" viewBox="0 0 48 43" fill="none" xmlns="http://www.w3.org/2000/svg">
<path fill-rule="evenodd" clip-rule="evenodd" d="M22.5195 0.00600004H13.5195L4.73353 0.00599289L4.72888 0.00600719C3.48057 0.00987542 2.28453 0.507681 1.40211 1.39065C0.519689 2.27362 0.0226275 3.46997 0.0195359 4.71829H0.0195312V4.722V10.506V37.276L0.0195358 37.2797C0.0226266 38.5322 0.521567 39.7326 1.40725 40.6183C2.29293 41.504 3.49329 42.0029 4.74583 42.006L4.74953 42.006H43.5195C44.713 42.006 45.8576 41.5319 46.7015 40.688C47.5454 39.8441 48.0195 38.6995 48.0195 37.506V10.506L48.0195 4.738L48.0195 4.7343C48.0164 3.48173 47.5177 2.28131 46.6323 1.39534C45.7468 0.509362 44.5467 0.00986934 43.2942 0.00600004H43.2895H22.5195ZM21.0195 3.006H15.0195V9.006H21.0195V3.006ZM24.0195 9.006V3.006H43.2869C43.746 3.00793 44.1857 3.19123 44.5103 3.516C44.835 3.84092 45.018 4.28104 45.0195 4.74036L45.0195 4.7417V9.006H24.0195ZM22.5195 12.006H13.5195H3.01953V37.2739C3.02107 37.7328 3.20405 38.1724 3.52857 38.497C3.85314 38.8215 4.29292 39.0045 4.75189 39.006L4.75323 39.006L43.5195 39.006C43.9174 39.006 44.2989 38.848 44.5802 38.5667C44.8615 38.2854 45.0195 37.9038 45.0195 37.506L45.0195 12.006H22.5195ZM4.73623 3.006H12.0195V9.006H3.01953V4.72413C3.02108 4.26914 3.20243 3.83317 3.52409 3.51131C3.84567 3.18954 4.28137 3.00792 4.73623 3.006Z" fill="url(#paint0_linear)"/>
<defs>
<linearGradient id="paint0_linear" x1="8.36501" y1="36.913" x2="35.0295" y2="1.51411" gradientUnits="userSpaceOnUse">
<stop stop-color="#552EE5"/>
<stop offset="1" stop-color="#EE5A59"/>
</linearGradient>
</defs>
</svg>
