<svg width="2000" height="2000" viewBox="0 0 2000 2000" fill="none" xmlns="http://www.w3.org/2000/svg">
<rect width="2000" height="2000" rx="300" fill="#161041"/>
<path d="M1502.65 521.741C1487.26 586.969 1448.51 731.775 1392.68 805.613C1391.48 807.154 1389.88 808.338 1388.05 809.035C1386.23 809.732 1384.25 809.916 1382.32 809.566C1380.4 809.217 1378.61 808.347 1377.15 807.052C1375.68 805.757 1374.6 804.086 1374.02 802.221C1361.86 760.164 1340.27 721.436 1310.88 688.985C1278.46 659.53 1239.73 637.887 1197.65 625.714C1195.8 625.135 1194.15 624.065 1192.86 622.62C1191.57 621.174 1190.7 619.407 1190.34 617.506C1189.98 615.605 1190.14 613.642 1190.81 611.825C1191.47 610.008 1192.62 608.406 1194.12 607.189C1268.09 551.354 1412.9 512.479 1478.13 497.085C1481.55 496.293 1485.11 496.356 1488.5 497.266C1491.89 498.176 1495 499.906 1497.56 502.303C1499.97 504.86 1501.69 507.979 1502.58 511.374C1503.47 514.77 1503.5 518.334 1502.65 521.741Z" fill="#EE5A59"/>
<path d="M1574.01 999.863C1574.04 1125.31 1532.98 1247.31 1457.1 1347.21C1381.22 1447.1 1274.71 1519.39 1153.85 1553.01C1032.99 1586.63 904.451 1579.74 787.885 1533.38C671.319 1487.02 573.149 1403.75 508.393 1296.31C443.636 1188.87 415.859 1063.18 429.31 938.457C442.761 813.734 496.7 696.852 582.876 605.691C669.051 514.529 782.718 454.108 906.488 433.67C1030.26 413.232 1157.31 433.903 1268.22 492.52C1236.29 505.221 1205.51 520.673 1176.25 538.702C1131.09 521.186 1083.55 510.544 1035.23 507.131C780.318 489.389 504.274 716.382 569.502 857.927C619.597 965.422 530.365 990.209 564.284 1050.74C573.024 1066.39 594.028 1077.61 609.943 1085.83C819.455 1194.5 960.869 985.251 1000.01 999.863C1014.62 1039 805.366 1180.54 913.905 1389.53C922.254 1405.58 933.343 1426.45 949.128 1435.19C1009.66 1468.72 1034.45 1379.88 1141.94 1430.11C1283.49 1495.59 1510.48 1219.55 1492.74 964.509C1489.26 916.239 1478.62 868.755 1461.17 823.617C1479.16 794.564 1494.61 764.011 1507.35 732.298C1551.06 814.714 1573.94 906.572 1574.01 999.863Z" fill="url(#paint0_linear)"/>
<defs>
<linearGradient id="paint0_linear" x1="625.598" y1="1434.8" x2="1375.46" y2="563.749" gradientUnits="userSpaceOnUse">
<stop stop-color="#552EE5"/>
<stop offset="1" stop-color="#EE5A59"/>
</linearGradient>
</defs>
</svg>
